<svg preserveAspectRatio="none" width="100%" height="100%" overflow="visible" style="display: block;" viewBox="0 0 123.458 14.0439" fill="none" xmlns="http://www.w3.org/2000/svg">
<g id="humbleteam">
<path d="M0 13.7294V0H2.9154V4.50612H3.01952C3.2 4.1847 3.45683 3.89124 3.79002 3.62572C4.55357 3.0248 5.40737 2.72435 6.3514 2.72435C7.67027 2.72435 8.69066 3.10865 9.41257 3.87726C10.1484 4.64587 10.5163 5.76385 10.5163 7.23119V13.7294H7.60086V7.65043C7.60086 6.86785 7.4065 6.27392 7.01778 5.86866C6.64294 5.44941 6.10845 5.23979 5.41431 5.23979C4.72017 5.23979 4.13015 5.50531 3.64425 6.03635C3.15835 6.56739 2.9154 7.24517 2.9154 8.06967V13.7294H0Z" fill="var(--fill-0, white)"/>
<path fill-rule="evenodd" clip-rule="evenodd" d="M81.2974 8.38411C81.2974 9.96325 81.8458 11.3048 82.9425 12.4088C84.0531 13.4989 85.4137 14.0439 87.0241 14.0439C88.8983 14.0439 90.3907 13.415 91.5013 12.1573C91.9594 11.6123 92.3065 10.9834 92.5425 10.2707H89.4189C89.2939 10.5083 89.1273 10.7179 88.9191 10.8996C88.3915 11.3188 87.7599 11.5284 87.0241 11.5284C86.3577 11.5284 85.7677 11.2839 85.254 10.7947C84.7403 10.3056 84.428 9.7117 84.3169 9.01297H92.6466V8.38411C92.6466 6.79099 92.1191 5.44942 91.064 4.35939C90.0089 3.26937 88.6622 2.72435 87.0241 2.72435C85.4137 2.72435 84.0531 3.27636 82.9425 4.38036C81.8458 5.47038 81.2974 6.80497 81.2974 8.38411ZM89.523 7.2312H84.421C84.5876 6.65823 84.9 6.18309 85.3581 5.80577C85.8163 5.42846 86.3716 5.2398 87.0241 5.2398C87.6766 5.2398 88.2249 5.43544 88.6692 5.82674C89.1273 6.20405 89.4119 6.67221 89.523 7.2312Z" fill="var(--fill-0, white)"/>
<path fill-rule="evenodd" clip-rule="evenodd" d="M93.2632 8.38411C93.2632 10.075 93.7283 11.4446 94.6584 12.4927C95.6025 13.5268 96.7686 14.0439 98.1569 14.0439C99.0871 14.0439 99.927 13.7644 100.677 13.2054C100.996 12.9399 101.267 12.6604 101.489 12.3669H101.593V13.7294H104.508V3.03878H101.593V4.40132H101.489C101.267 4.10785 100.996 3.82835 100.677 3.56283C99.927 3.00385 99.0871 2.72435 98.1569 2.72435C96.7686 2.72435 95.6025 3.2484 94.6584 4.29651C93.7283 5.33063 93.2632 6.69317 93.2632 8.38411ZM96.2827 8.38411C96.2827 7.40588 96.5257 6.63727 97.0116 6.07828C97.4975 5.51929 98.1222 5.2398 98.8858 5.2398C99.691 5.2398 100.343 5.51929 100.843 6.07828C101.343 6.6233 101.593 7.39191 101.593 8.38411C101.593 9.37631 101.343 10.1519 100.843 10.7109C100.343 11.2559 99.691 11.5284 98.8858 11.5284C98.1222 11.5284 97.4975 11.2489 97.0116 10.6899C96.5257 10.131 96.2827 9.36234 96.2827 8.38411Z" fill="var(--fill-0, white)"/>
<path d="M106.174 3.03878H109.09V4.50613H109.194C109.388 4.15676 109.624 3.86329 109.902 3.62572C110.582 3.02481 111.387 2.72435 112.317 2.72435C113.428 2.72435 114.358 3.05974 115.108 3.73053C115.413 4.024 115.663 4.35241 115.858 4.71575H115.962C116.156 4.35241 116.406 4.024 116.711 3.73053C117.461 3.05974 118.356 2.72435 119.398 2.72435C120.675 2.72435 121.668 3.11564 122.376 3.89823C123.097 4.66684 123.458 5.77783 123.458 7.2312V13.7294H120.543V7.54563C120.543 6.00841 119.884 5.2398 118.565 5.2398C117.926 5.2398 117.385 5.49134 116.94 5.99443C116.496 6.49752 116.274 7.15433 116.274 7.96486V13.7294H113.359V7.54563C113.359 6.00841 112.699 5.2398 111.38 5.2398C110.742 5.2398 110.2 5.49134 109.756 5.99443C109.312 6.49752 109.09 7.15433 109.09 7.96486V13.7294H106.174V3.03878Z" fill="var(--fill-0, white)"/>
<path d="M76.521 0.732816H73.6056V11.2638C73.6056 12.6254 74.7105 13.7293 76.0734 13.7293H80.8907V11.2138H76.521V5.55409H80.7658V3.03864H76.521V0.732816Z" fill="var(--fill-0, white)"/>
<path fill-rule="evenodd" clip-rule="evenodd" d="M42.8095 13.7294V0H45.7249V4.40131H45.829C46.0511 4.10784 46.3218 3.82835 46.6411 3.56283C47.3908 3.00384 48.2307 2.72435 49.1609 2.72435C50.5492 2.72435 51.7084 3.2484 52.6385 4.2965C53.5826 5.33063 54.0546 6.69316 54.0546 8.3841C54.0546 10.075 53.5826 11.4446 52.6385 12.4927C51.7084 13.5268 50.5492 14.0439 49.1609 14.0439C48.2307 14.0439 47.3908 13.7644 46.6411 13.2054C46.3218 12.9399 46.0511 12.6604 45.829 12.3669H45.7249V13.7294H42.8095ZM46.4745 6.07828C45.9748 6.62329 45.7249 7.3919 45.7249 8.3841C45.7249 9.37631 45.9748 10.1519 46.4745 10.7109C46.9743 11.2559 47.6268 11.5284 48.432 11.5284C49.1956 11.5284 49.8203 11.2489 50.3062 10.6899C50.7921 10.1309 51.0351 9.36233 51.0351 8.3841C51.0351 7.40587 50.7921 6.63727 50.3062 6.07828C49.8203 5.51929 49.1956 5.23979 48.432 5.23979C47.6268 5.23979 46.9743 5.51929 46.4745 6.07828Z" fill="var(--fill-0, white)"/>
<path d="M23.9725 13.7294V3.03878H26.8879V4.50612H26.992C27.1863 4.15675 27.4224 3.86329 27.7 3.62572C28.3803 3.0248 29.1855 2.72435 30.1156 2.72435C31.2263 2.72435 32.1564 3.05974 32.9061 3.73053C33.2115 4.024 33.4614 4.3524 33.6558 4.71574H33.7599C33.9542 4.3524 34.2041 4.024 34.5095 3.73053C35.2592 3.05974 36.1547 2.72435 37.1959 2.72435C38.4731 2.72435 39.4657 3.11564 40.1737 3.89822C40.8957 4.66683 41.2566 5.77782 41.2566 7.23119V13.7294H38.3412V7.54562C38.3412 6.0084 37.6818 5.23979 36.3629 5.23979C35.7243 5.23979 35.1829 5.49134 34.7386 5.99443C34.2944 6.49752 34.0722 7.15433 34.0722 7.96486V13.7294H31.1568V7.54562C31.1568 6.0084 30.4974 5.23979 29.1785 5.23979C28.5399 5.23979 27.9985 5.49134 27.5542 5.99443C27.11 6.49752 26.8879 7.15433 26.8879 7.96486V13.7294H23.9725Z" fill="var(--fill-0, white)"/>
<path d="M55.1999 11.2639C55.1999 12.6256 56.3048 13.7294 57.6677 13.7294H60.5101V11.214H58.1153V0H55.1999V11.2639Z" fill="var(--fill-0, white)"/>
<path fill-rule="evenodd" clip-rule="evenodd" d="M62.2658 12.4088C61.1691 11.3048 60.6207 9.96325 60.6207 8.3841C60.6207 6.80496 61.1691 5.47038 62.2658 4.38035C63.3765 3.27635 64.737 2.72435 66.3474 2.72435C67.9856 2.72435 69.3322 3.26936 70.3873 4.35939C71.4424 5.44942 71.97 6.79099 71.97 8.3841V9.01297H63.6403C63.7513 9.7117 64.0637 10.3056 64.5773 10.7947C65.091 11.2839 65.681 11.5284 66.3474 11.5284C67.0832 11.5284 67.7149 11.3188 68.2424 10.8996C68.4507 10.7179 68.6173 10.5083 68.7422 10.2707H71.8658C71.6298 10.9834 71.2828 11.6123 70.8246 12.1573C69.714 13.415 68.2216 14.0439 66.3474 14.0439C64.737 14.0439 63.3765 13.4988 62.2658 12.4088ZM63.7444 7.23119H68.8463C68.7353 6.6722 68.4507 6.20405 67.9925 5.82673C67.5483 5.43544 66.9999 5.23979 66.3474 5.23979C65.6949 5.23979 65.1396 5.42845 64.6815 5.80577C64.2233 6.18309 63.911 6.65823 63.7444 7.23119Z" fill="var(--fill-0, white)"/>
<path d="M22.534 3.03773H19.6432V8.46186L19.6415 8.4618C19.6259 9.21451 19.5004 9.83676 19.0471 10.3286C18.5588 10.8582 17.9579 11.123 17.2443 11.123C16.5307 11.123 15.9298 10.8582 15.4415 10.3286C14.9882 9.83676 14.9055 9.21458 14.8947 8.46186V3.03773H11.9862V8.81408H11.9888C12.0286 10.1629 12.5285 11.3148 13.4885 12.2697C14.4901 13.2532 15.742 13.745 17.2443 13.745C18.7341 13.745 19.9798 13.2532 20.9813 12.2697C21.9533 11.3148 22.4937 10.1629 22.534 8.81408V3.03773Z" fill="var(--fill-0, white)"/>
</g>
</svg>
