<?xml version="1.0" encoding="UTF-8" standalone="no"?>
<svg
   xmlns:svg="http://www.w3.org/2000/svg"
   xmlns="http://www.w3.org/2000/svg"
   version="1.1"
   width="535.62518"
   height="298.84201"
   id="svg3169">
  <defs
     id="defs3171" />
  <g
     transform="translate(-82.18742,-382.94118)"
     id="layer1">
    <path
       d="m 556.38944,555.85181 c 30.83288,0 56.42314,-26.18517 56.42314,-57.40845 0,-16.91765 -6.33949,-30.62837 -17.19651,-40.63954 -13.03218,-12.00037 -30.20079,-16.8061 -41.36458,-16.8061 -2.48186,0 -5.475,0.36253 -7.95686,1.05968 -0.90166,0.26957 -1.4129,0.71575 -1.4129,1.29206 0,0.77153 0.62279,1.2363 2.88156,1.36643 16.6109,0.91095 34.92285,8.59826 45.39879,19.35305 9.02585,9.23963 11.36829,19.05558 11.04295,26.01785 -0.818,18.18182 -14.00819,30.9816 -32.41309,30.9816 -7.4921,0 -15.31885,-2.65849 -22.05801,-5.80034 -14.07325,-6.59974 -26.04574,-15.97881 -40.65814,-15.97881 -6.55325,0 -7.93826,2.16584 -7.93826,5.04741 0,10.91281 5.84681,24.76297 16.74101,35.38762 9.3233,9.08162 22.2811,16.12754 38.5109,16.12754 m -12.29122,-49.8383 C 532.46037,500.66865 521.15714,494.292 509.81674,494.292 c -2.56552,0 -5.44711,0.0558 -8.55177,0.98531 0.17661,-9.80665 4.71277,-24.58636 17.15002,-36.11266 7.65013,-7.0831 15.9974,-10.7455 24.36328,-10.7455 6.72987,0 15.90445,1.60811 23.06191,4.59194 20.0502,8.39375 29.29914,20.99832 29.29914,33.26827 0,1.63599 -0.10225,3.25339 -0.39043,4.87079 -1.97061,11.21956 -10.96857,22.03013 -25.13477,22.03013 -8.28223,0 -13.85018,-1.56163 -25.5159,-7.16677"
       id="path3826"
       style="fill:#ffe600;fill-opacity:1;fill-rule:nonzero;stroke:none" />
    <path
       d="m 599.15042,618.51779 c 2.85347,0 5.12697,2.31991 5.12697,5.21978 0,2.94628 -2.27542,5.24298 -5.15017,5.24298 -2.85543,0 -5.17533,-2.2967 -5.17533,-5.24298 0,-2.89987 2.3199,-5.21978 5.17533,-5.21978 h 0.0233 z m -0.0213,0.81197 c -2.29673,0 -4.17583,1.97385 -4.17583,4.40781 0,2.4823 1.8791,4.43102 4.19903,4.43102 2.3199,0.0233 4.17582,-1.94872 4.17582,-4.40782 0,-2.45716 -1.85592,-4.43101 -4.17582,-4.43101 h -0.0232 z m -0.97438,7.44883 h -0.92795 v -5.8249 c 0.48718,-0.0676 0.95115,-0.13727 1.64905,-0.13727 0.88158,0 1.46155,0.1856 1.80954,0.44079 0.34799,0.25519 0.53356,0.64958 0.53356,1.20635 0,0.76556 -0.5123,1.22955 -1.13675,1.41514 v 0.0445 c 0.51039,0.0948 0.85645,0.55679 0.97438,1.41515 0.13726,0.90476 0.27837,1.25081 0.36925,1.43834 h -0.97438 c -0.13917,-0.18753 -0.27837,-0.71918 -0.39436,-1.48668 -0.13726,-0.74236 -0.51039,-1.01882 -1.25084,-1.01882 h -0.64955 v 2.50743 z m 0,-3.22468 h 0.67279 c 0.76556,0 1.41514,-0.28031 1.41514,-0.99949 0,-0.51037 -0.37119,-1.01882 -1.41514,-1.01882 -0.30159,0 -0.51039,0.0232 -0.67279,0.0445 v 1.97385 z M 362.77069,483.38106 c -7.80815,0 -10.28071,2.77933 -10.28071,9.3047 l 0,136.67971 5.78175,0 c 19.037,0 29.44785,-8.9236 32.19,-21.41662 0.48336,-2.24949 0.72504,-5.49359 0.72504,-7.95688 l 0,-30.88863 24.81875,0 c 8.35657,0 12.22346,-2.18443 14.33352,-8.34729 l 5.62373,-18.89756 -44.74813,0 0,-31.13963 41.98739,0 c 10.29931,0 13.37609,-3.09537 15.63486,-10.3365 l 5.2984,-17.0013 -91.3646,0 z m -80.85322,27.24017 30.9909,0 c 10.7362,0 14.38927,-2.6306 15.76501,-8.02194 l 4.31306,-19.22292 -119.72487,0 c -7.16678,0 -10.48523,1.84979 -11.9353,8.14279 l -4.62913,19.10207 46.61649,0 0,118.73956 0.009,0 5.73526,0 c 17.09425,0 28.57409,-7.17605 31.87395,-20.16174 0.78083,-3.0489 0.98533,-6.38595 0.98533,-8.85853 l 0,-89.71929 z m -144.21458,118.74142 0,-137.57206 c 0,-6.19075 3.82042,-8.41235 9.10022,-8.41235 l 29.5501,0 0,117.0478 c 0,3.29057 -0.37182,6.4882 -1.11545,9.17457 -3.37423,12.1305 -14.30564,19.76204 -31.77172,19.76204 l -5.76315,0 z m 348.7015,-168.1874 C 363.80723,390.92054 263.32384,371.08414 187.73358,402.22376 109.54988,434.43235 87.510467,511.54708 87.29668,512.3186 c -0.409,1.46868 0.362512,2.99311 1.775412,3.53225 1.412913,0.54843 3.011713,-0.0651 3.699575,-1.4129 21.137763,-41.84794 54.684903,-70.44061 99.711863,-84.98794 36.22421,-11.71221 79.94051,-14.44506 129.94984,-8.13347 85.48057,10.79196 160.53172,44.75738 161.28465,45.10132 1.4222,0.65068 3.12326,0.0557 3.8483,-1.33854 0.70645,-1.40361 0.2045,-3.12326 -1.16193,-3.90407 M 157.93157,664.64339 c 0,-1.89627 0,-3.35564 -0.85518,-4.19223 -0.52055,-0.50196 -1.35713,-0.78082 -2.72356,-0.78082 -1.53374,0 -2.87227,0.51125 -3.98772,1.26418 l 0,15.33743 -3.91337,0 0,-16.14614 c 2.09147,-1.58021 5.02882,-3.31845 8.78415,-3.31845 1.27348,0 3.53227,0.25098 5.01953,1.62669 1.18981,1.10616 1.58022,2.37962 1.58022,5.36345 l 0,12.47445 -3.90407,0 0,-11.62856 z m 60.70832,0 c 0,-1.59882 -0.0279,-2.90947 -0.55772,-3.77394 -0.47408,-0.76223 -1.35714,-1.19911 -3.02103,-1.19911 -1.53372,0 -2.90015,0.51125 -4.00631,1.26418 l 0,15.33743 -3.90406,0 0,-16.14614 c 2.08216,-1.58021 5.01951,-3.31845 8.79345,-3.31845 1.26417,0 3.52296,0.25098 5.01022,1.62669 1.1991,1.10616 1.58953,2.37962 1.58953,5.36345 l 0,12.47445 -3.90408,0 0,-11.62856 z m 76.1294,0 c 0,-1.59882 -0.0186,-2.90947 -0.54842,-3.77394 -0.47408,-0.76223 -1.36643,-1.19911 -3.02103,-1.19911 -1.53372,0 -2.89085,0.51125 -4.0156,1.26418 l 0,15.33743 -3.90407,0 0,-16.14614 c 2.08217,-1.58021 5.02882,-3.31845 8.80275,-3.31845 1.26417,0 3.52296,0.25098 5.00092,1.62669 1.18983,1.10616 1.57094,2.37962 1.57094,5.36345 l 0,12.47445 -3.88549,0 0,-11.62856 z m 91.56909,0 c 0,-1.59882 -0.0186,-2.90947 -0.55774,-3.77394 -0.47405,-0.76223 -1.35711,-1.19911 -3.021,-1.19911 -1.53375,0 -2.90016,0.51125 -4.01561,1.26418 l 0,15.33743 -3.91336,0 0,-16.14614 c 2.08216,-1.58021 5.0474,-3.31845 8.81202,-3.31845 1.27349,0 3.53228,0.25098 5.01954,1.62669 1.18981,1.10616 1.57091,2.37962 1.57091,5.36345 l 0,12.47445 -3.89476,0 0,-11.62856 z m 19.71556,0 c 0,-1.59882 -0.0186,-2.90947 -0.54842,-3.77394 -0.47408,-0.76223 -1.36643,-1.19911 -3.02103,-1.19911 -1.53372,0 -2.89086,0.51125 -4.0156,1.26418 l 0,15.33743 -3.83901,0 0,-16.14614 c 2.01711,-1.58021 4.96375,-3.31845 8.74699,-3.31845 1.26417,0 3.52296,0.25098 5.00092,1.62669 1.1898,1.10616 1.5895,2.37962 1.5895,5.36345 l 0,12.47445 -3.91335,0 0,-11.62856 z m 126.03645,-7.83603 c -3.76462,0 -6.71127,1.73824 -8.78415,3.31845 l 0,16.14614 3.89478,0 0,-14.95633 c 1.16192,-0.7901 2.59342,-1.16192 4.02491,-1.16192 0.71575,0 1.31065,0.0465 1.77541,0.13944 l 0.2045,-3.41142 c -0.3718,-0.0651 -0.77151,-0.0744 -1.11545,-0.0744 m -327.8584,0 c -3.76462,0 -6.6834,1.73824 -8.77485,3.31845 l 0,16.14614 3.87618,0 0,-14.95633 c 1.18052,-0.7901 2.59342,-1.16192 4.01562,-1.16192 0.72504,0 1.32924,0.0465 1.7847,0.13945 l 0.2045,-3.41143 c -0.3811,-0.0651 -0.7715,-0.0744 -1.10615,-0.0744 m -37.14445,13.08793 0,-9.84385 -2.0078,0 0,-2.86297 2.0078,0 0,-4.89869 3.8483,-1.37572 0,6.27441 3.38354,0 0,2.86297 -3.38354,0 0,10.91282 c 0,1.00391 0.0465,1.98922 0.8087,2.58412 0.45548,0.37183 1.19912,0.52984 2.29598,0.53914 l 0,2.4354 c -0.50196,0.0557 -0.97603,0.0836 -1.4315,0.065 -1.66388,-0.0186 -2.77933,-0.31604 -3.79253,-1.02249 -1.23628,-0.85519 -1.64528,-2.33315 -1.69176,-3.78324 -0.0371,-0.67856 -0.0371,-1.32925 -0.0371,-1.88696 m 77.62597,0 0,-9.84385 -2.0171,0 0,-2.86297 2.0171,0 0,-4.89869 3.8576,-1.37573 0,6.27442 3.39281,0 0,2.86297 -3.39281,0 0,10.91281 c 0,1.00392 0.0371,1.98923 0.7994,2.58413 0.46476,0.37182 1.1991,0.52984 2.30526,0.53914 l 0,2.4354 c -0.50195,0.0557 -0.98531,0.0836 -1.4315,0.065 -1.66386,-0.0186 -2.78861,-0.31604 -3.81111,-1.02249 -1.23629,-0.85519 -1.64529,-2.33315 -1.69175,-3.78324 -0.0279,-0.67856 -0.0279,-1.32925 -0.0279,-1.88696 m 12.9206,-20.6637 c 1.18983,0 2.13795,0.92954 2.10078,2.11935 0,1.18981 -0.94813,2.12865 -2.14724,2.12865 -1.18051,0 -2.12865,-0.96673 -2.12865,-2.12865 0,-1.38501 1.18051,-2.11935 2.17511,-2.11935 m -1.95202,9.05372 3.93196,-1.30135 0,19.28798 -3.93196,0 0,-17.98663 z m 160.25287,-9.05372 c 1.1898,0 2.14724,0.92954 2.11005,2.11935 0,1.18981 -0.95742,2.12865 -2.14725,2.12865 -1.1898,0 -2.14722,-0.96673 -2.14722,-2.12865 0,-1.38501 1.18981,-2.11935 2.18442,-2.11935 m -1.95205,9.05372 3.92268,-1.30135 0,19.28798 -3.92268,0 0,-17.98663 z m -94.04165,13.24597 c 0,1.13403 0.26955,2.68637 1.32924,3.68097 0.92025,0.85519 2.26809,1.37573 4.52686,1.37573 0.33464,0 0.8273,-0.0371 1.18983,-0.0744 l 0,-2.4261 c -0.92025,0 -1.84979,-0.18591 -2.46329,-0.68786 -0.59491,-0.47406 -0.82729,-1.16191 -0.82729,-2.00781 0,0 -0.0186,-2.23089 -0.0186,-3.88548 l 0,-18.32125 -3.76465,1.2084 0,19.06489 c 0,0.9946 0.0279,2.07289 0.0279,2.07289 m -182.23649,4.74065 3.89478,0 0,-27.01245 -3.89478,1.34781 0,25.66464 z m 223.02477,-27.01245 -19.0556,0 -1.42219,2.90945 8.04981,0 0,24.103 3.89479,0 0,-24.103 7.0738,0 1.45939,-2.90945 z m -175.62754,27.32873 c -6.4882,0 -8.61685,-5.6609 -8.61685,-9.68582 0,-6.92508 4.248,-10.10411 8.06841,-10.10411 2.39822,0 4.2666,0.84589 5.52147,2.52835 1.227,1.6267 1.71035,3.54155 1.71035,6.02343 0,0.49266 -0.0279,0.95742 -0.0651,1.39431 l -11.25674,0 c -0.16732,4.30377 2.11006,7.05521 5.00093,7.05521 1.84051,0 3.43931,-0.47406 5.33557,-1.73824 l 1.10615,2.26808 c -1.8219,1.39431 -3.68099,2.25879 -6.80424,2.25879 m -4.4618,-12.5395 7.38985,0 c -0.0836,-2.61202 -1.17122,-4.51758 -3.46718,-4.51758 -2.10077,0 -3.57874,1.6267 -3.92267,4.51758 m 285.64795,-11.80518 1.44079,-2.98382 -15.48616,0 0,27.01246 3.91337,0 0,-12.20488 7.71519,0 1.16194,-3.03031 -8.87713,0 0,-8.79345 10.132,0 z m -203.3185,14.18479 c 0,-5.0381 3.20692,-9.60215 8.72838,-9.60215 5.49359,0 8.66332,4.56405 8.66332,9.60215 0,5.03811 -2.74213,10.17847 -8.74698,10.17847 -5.93047,0 -8.64472,-5.07528 -8.64472,-10.17847 m 4.15503,0 c 0,3.55085 1.13405,7.40845 4.57335,7.40845 3.6438,0 4.48969,-3.8576 4.52687,-7.36196 0,-3.23482 -1.23628,-6.65552 -4.53617,-6.65552 -3.29986,0 -4.56405,3.38353 -4.56405,6.60903 m 153.93199,7.95687 1.50586,-2.46328 c 1.34784,1.0132 2.93735,1.79402 4.92657,1.79402 1.94275,0 3.68098,-0.71575 3.68098,-2.70497 0,-3.47648 -9.60216,-2.28667 -9.60216,-8.4867 0,-3.55085 3.0768,-5.82823 6.7113,-5.82823 2.31455,0 3.75535,0.53914 5.78175,1.84049 l -1.46869,2.55624 c -1.29206,-0.79012 -2.33315,-1.37572 -4.19223,-1.37572 -2.06358,0 -3.15113,0.91095 -3.15113,2.4261 0,3.2441 9.74158,2.2216 9.74158,8.56108 0,5.02881 -5.01023,6.07919 -7.2969,6.07919 -2.75143,0 -5.35415,-1.15263 -6.63693,-2.39822 m 72.5135,2.17513 c -6.10709,0 -8.7098,-4.8429 -8.7098,-9.62075 0,-6.44171 4.72206,-10.16918 8.85853,-10.16918 1.26417,0 2.58412,0.093 3.77393,0.70645 l 0,-6.99943 3.839,-1.28278 0,24.2982 c -1.67316,1.95204 -4.90796,3.06749 -7.76166,3.06749 m 0.4276,-16.89905 c -2.4261,0 -5.04742,2.56552 -5.04742,7.24112 0,3.97844 1.86837,6.96227 5.11247,6.96227 1.0225,0 2.73285,-0.35323 3.4579,-1.31065 l 0,-11.99109 c -0.9946,-0.71575 -2.2402,-0.90165 -3.52295,-0.90165 m -129.30849,16.96412 c -6.4789,0 -8.61684,-5.65161 -8.61684,-9.68582 0,-6.92508 4.2294,-10.1134 8.05911,-10.1134 2.38893,0 4.2666,0.85517 5.52148,2.53765 1.23627,1.62669 1.71035,3.55084 1.71035,6.02342 0,0.48337 -0.0186,0.95743 -0.0557,1.39432 l -11.25675,0 c -0.17663,4.30377 2.10076,7.05521 4.99162,7.05521 1.8498,0 3.4393,-0.48336 5.32629,-1.73825 l 1.10615,2.25879 c -1.8219,1.40361 -3.68099,2.26808 -6.78565,2.26808 m -4.48039,-12.53951 7.40844,0 c -0.093,-2.61201 -1.18051,-4.52686 -3.47649,-4.52686 -2.09146,0 -3.57872,1.63599 -3.93195,4.52686 m 115.16079,12.53951 c -6.4882,0 -8.56109,-5.65161 -8.56109,-9.68582 0,-6.92508 4.18295,-10.1134 8.01265,-10.1134 2.38893,0 4.28519,0.85517 5.54008,2.53765 1.21767,1.62669 1.71035,3.55084 1.71035,6.02342 0,0.48337 -0.0279,0.95743 -0.0651,1.39432 l -11.28464,0 c -0.15801,4.30377 2.11007,7.05521 5.01023,7.05521 1.8405,0 3.4486,-0.48336 5.34486,-1.73825 l 1.10616,2.25879 c -1.81261,1.40361 -3.69028,2.26808 -6.81353,2.26808 m -4.4618,-12.53951 7.38055,0 c -0.0836,-2.61201 -1.15263,-4.52686 -3.46719,-4.52686 -2.10076,0 -3.56944,1.63599 -3.91336,4.52686 m 41.99666,12.53951 c -6.4882,0 -8.62614,-5.65161 -8.62614,-9.68582 0,-6.92508 4.2387,-10.1134 8.06841,-10.1134 2.38893,0 4.29448,0.85517 5.54007,2.53765 1.23628,1.62669 1.71036,3.55084 1.71036,6.02342 0,0.48337 -0.0186,0.95743 -0.0651,1.39432 l -11.27531,0 c -0.14875,4.30377 2.11005,7.05521 5.00091,7.05521 1.84979,0 3.45789,-0.48336 5.35418,-1.73825 l 1.10615,2.25879 c -1.8312,1.40361 -3.70889,2.26808 -6.81354,2.26808 m -4.4711,-12.53951 7.38985,0 c -0.093,-2.61201 -1.17121,-4.52686 -3.46719,-4.52686 -2.10076,0 -3.57872,1.63599 -3.92266,4.52686 m -199.53518,12.52091 c -5.14965,0 -7.5014,-3.26268 -7.5014,-6.39523 0,-3.33705 2.08217,-6.10709 7.12027,-6.10709 l 3.95985,0 0,-1.22699 c 0,-1.09686 -0.22307,-1.84979 -0.76221,-2.31456 -0.58561,-0.53913 -1.78474,-0.76223 -3.10466,-0.76223 -1.0318,0 -2.4447,0.009 -5.54008,0.91095 l 0,-2.88157 c 2.8258,-1.0132 5.4564,-1.0039 5.76315,-1.0039 1.58953,0 3.99704,0.27886 5.53078,1.52445 1.12475,0.91095 1.8312,2.34244 1.8312,4.37814 0,0 0.0186,0.91095 0.0186,1.65457 l 0,9.45344 c -1.96132,2.11005 -4.95445,2.77002 -7.31549,2.77002 m -0.009,-9.69511 c -2.19372,0 -3.6531,1.18981 -3.6531,3.19763 0,2.07287 1.4129,3.61591 3.88548,3.61591 1.41291,0 2.53765,-0.32534 3.27199,-0.86448 l 0,-5.94906 -3.50437,0 z m -76.21307,9.69511 c -5.14965,0 -7.50139,-3.26268 -7.50139,-6.39523 0,-3.33705 2.08216,-6.10709 7.12028,-6.10709 l 3.95985,0 0,-1.22699 c 0,-1.09686 -0.23239,-1.84979 -0.77153,-2.31456 -0.5856,-0.53913 -1.77541,-0.76223 -3.09536,-0.76223 -1.0318,0 -2.4447,0.009 -5.54006,0.91095 l 0,-2.88157 c 2.8165,-1.0132 5.4564,-1.0039 5.76315,-1.0039 1.58951,0 3.99702,0.27886 5.54006,1.52445 1.12475,0.91095 1.8312,2.34244 1.8312,4.37814 0,0 0.0279,0.91095 0.0279,1.65457 l 0,9.45344 c -1.97991,2.11005 -4.97305,2.77002 -7.33407,2.77002 m -0.009,-9.69511 c -2.20303,0 -3.6531,1.18981 -3.6531,3.19763 0,2.07287 1.4129,3.61591 3.88546,3.61591 1.40361,0 2.52836,-0.32534 3.272,-0.86448 l 0,-5.94906 -3.50436,0 z m 370.81247,-2.26807 c 0,-1.59882 -0.009,-2.90947 -0.54841,-3.77394 -0.47409,-0.76223 -1.35715,-1.19911 -3.01171,-1.19911 -1.54305,0 -2.90019,0.51125 -4.02493,1.26418 l 0,15.33743 -3.90406,0 0,-16.14614 c 2.09145,-1.58021 5.0288,-3.31845 8.80275,-3.31845 1.26416,0 3.53225,0.25098 5.01951,1.62669 1.18983,1.10616 1.58023,2.37962 1.58023,5.36345 l 0,12.47445 -3.91338,0 0,-11.62856 z m -49.84197,5.25191 0,-9.84385 -2.0171,0 0,-2.86298 2.0171,0 0,-4.89868 3.8483,-1.37573 0,6.27441 3.39281,0 0,2.86298 -3.39281,0 0,10.91281 c 0,1.00391 0.0465,1.98923 0.818,2.58413 0.44616,0.37182 1.18981,0.52983 2.28666,0.53913 l 0,2.4354 c -0.49265,0.0557 -0.97601,0.0836 -1.4315,0.065 -1.66389,-0.0186 -2.78861,-0.31603 -3.80181,-1.02248 -1.23629,-0.85519 -1.64529,-2.33315 -1.70108,-3.78324 -0.0186,-0.67856 -0.0186,-1.32925 -0.0186,-1.88696 m 12.91132,-20.6637 c 1.18982,0 2.14724,0.92953 2.11005,2.11935 0,1.18981 -0.94812,2.12865 -2.13793,2.12865 -1.18982,0 -2.14724,-0.96673 -2.14724,-2.12865 0,-1.38502 1.18981,-2.11935 2.17512,-2.11935 m -1.95203,9.05372 3.93196,-1.30135 0,19.28798 -3.93196,0 0,-17.98663 z m -22.95967,18.32125 c -5.09388,0 -7.45492,-3.26269 -7.45492,-6.39524 0,-3.33705 2.09147,-6.10708 7.05522,-6.10708 l 3.96914,0 0,-1.22699 c 0,-1.09686 -0.23239,-1.84979 -0.76222,-2.31456 -0.5949,-0.53913 -1.79402,-0.76223 -3.10467,-0.76223 -1.0318,0 -2.37962,0.009 -5.475,0.91095 l 0,-2.88157 c 2.80722,-1.0132 5.39134,-1.0039 5.70739,-1.0039 1.58021,0 3.98773,0.27886 5.53076,1.52445 1.12475,0.91095 1.84049,2.34243 1.84049,4.37813 0,0 0.0279,0.91095 0.0279,1.65458 l 0,9.45344 c -1.98923,2.11005 -4.99164,2.77002 -7.33408,2.77002 m -0.0186,-9.69511 c -2.20303,0 -3.58805,1.18981 -3.58805,3.19762 0,2.07288 1.34785,3.61592 3.82041,3.61592 1.40361,0 2.53765,-0.32534 3.27199,-0.86448 l 0,-5.94906 -3.50435,0 z m 47.5553,-0.16731 c 0,5.01022 -3.17903,9.9275 -8.6912,9.9275 -5.53078,0 -8.7098,-4.91728 -8.7098,-9.9275 0,-5.03812 3.17902,-9.93679 8.7098,-9.93679 5.51217,0 8.6912,4.89867 8.6912,9.93679 m -4.10858,0 c 0,-3.21622 -1.28276,-6.94368 -4.58262,-6.94368 l -0.009,0 c -3.29989,0 -4.57335,3.72746 -4.57335,6.94368 0,3.20691 1.27346,6.93437 4.57335,6.93437 l 0.009,0 c 3.29986,0 4.58262,-3.72746 4.58262,-6.93437"
       id="path4104"
       style="fill:#01835e;fill-opacity:1" />
  </g>
</svg>
