<svg height="348.209707" viewBox="0 0 400 485.01529052" width="287.183263" xmlns="http://www.w3.org/2000/svg"><g fill-rule="evenodd"><path d="m197.7 1.882c-.495.096-.9.431-.9.746 0 .343-.399.572-1 .572-.55 0-1 .18-1 .4s-.456.4-1.013.4c-.556 0-1.116.27-1.242.6-.127.33-.481.6-.788.6-.306 0-.557.166-.557.368 0 .203-.54.487-1.2.632s-1.2.415-1.2.6-.54.455-1.2.6-1.2.421-1.2.614c0 .192-.63.468-1.4.612-.77.145-1.4.423-1.4.619 0 .195-.347.355-.771.355-.425 0-1.042.27-1.372.6s-1.068.6-1.641.6-1.145.271-1.272.602-.932.715-1.788.851c-.856.137-1.556.383-1.556.547s-.72.413-1.6.554c-.88.14-1.6.433-1.6.651 0 .217-.36.395-.8.395-.444 0-.8.267-.8.6 0 .4-.4.6-1.2.6-.66 0-1.2.18-1.2.4s-.72.4-1.6.4c-1.12 0-1.6.171-1.6.571 0 .392-.684.657-2.174.843-1.281.16-2.261.5-2.387.829-.118.307-.759.557-1.426.557s-1.213.18-1.213.4-.81.4-1.8.4c-1.258 0-1.8.165-1.8.548 0 .386-.824.63-2.774.822-1.526.15-2.84.471-2.92.712s-1.172.524-2.426.628-2.28.347-2.28.54c0 .192-.9.35-2 .35-1.416 0-2 .158-2 .542 0 .535-3.338 1.048-6.867 1.055-.806.002-1.539.22-1.627.486-.099.296-1.274.546-3.034.645-1.579.089-2.872.322-2.872.517s-1.691.355-3.757.355c-2.971 0-3.806.126-3.988.6-.188.491-1.178.6-5.442.6-3.209 0-5.213.154-5.213.4 0 .252-2.733.4-7.4.4s-7.4-.148-7.4-.4c0-.244-1.857-.4-4.771-.4-3.708 0-4.906-.134-5.372-.6-.44-.44-1.514-.6-4.028-.6-2.019 0-3.429-.164-3.429-.4 0-.222-1.057-.4-2.371-.4-1.447 0-2.581-.209-2.907-.535-.34-.34-2.132-.638-4.923-.819-3.196-.206-4.477-.441-4.713-.865-.223-.397-1.015-.581-2.506-.581-1.199 0-2.18-.18-2.18-.4s-.726-.4-1.613-.4c-1.038 0-1.691-.206-1.834-.579-.149-.388-1.138-.67-2.988-.852-1.943-.191-2.765-.435-2.765-.821 0-.383-.542-.548-1.8-.548-.99 0-1.8-.18-1.8-.4s-.527-.4-1.171-.4c-.645 0-1.42-.248-1.724-.552-.303-.303-1.486-.68-2.628-.837-1.383-.191-2.077-.474-2.077-.849 0-.98-3.623-.759-3.884.238-.115.44-.368.8-.563.8-.194 0-.353.72-.353 1.6 0 1.106-.173 1.6-.561 1.6-.387 0-.646.735-.836 2.371-.17 1.466-.49 2.454-.839 2.587-.338.13-.564.783-.564 1.629 0 .777-.18 1.413-.4 1.413s-.4.63-.4 1.4c0 .978-.181 1.4-.6 1.4-.433 0-.6.444-.6 1.6 0 .88-.18 1.6-.4 1.6s-.4.347-.4.771c0 .425-.263 1.035-.584 1.356-.322.322-.707 1.774-.856 3.229-.187 1.832-.438 2.644-.815 2.644-.356 0-.545.485-.545 1.4 0 .77-.18 1.4-.4 1.4s-.4.707-.4 1.571c0 .865-.258 1.83-.574 2.146-.316.315-.699 1.678-.852 3.028-.189 1.678-.451 2.455-.826 2.455-.383 0-.548.542-.548 1.8 0 .99-.18 1.8-.4 1.8s-.4.707-.4 1.571c0 .865-.27 1.842-.6 2.172s-.6 1.153-.6 1.828c0 .676-.18 1.229-.4 1.229s-.4.698-.4 1.551-.245 1.755-.545 2.003c-.318.264-.66 1.722-.821 3.499-.163 1.792-.515 3.285-.855 3.625-.319.319-.579 1.299-.579 2.179 0 .889-.267 1.867-.6 2.2-.33.33-.6 1.217-.6 1.972 0 .754-.155 1.371-.345 1.371s-.473 1.736-.629 3.857c-.182 2.483-.486 4.06-.854 4.428-.327.327-.572 1.345-.572 2.372 0 1.067-.244 2.045-.6 2.4-.371.371-.6 1.353-.6 2.572 0 1.084-.154 1.971-.343 1.971-.188 0-.467 1.665-.62 3.7-.152 2.035-.448 3.76-.657 3.833-.209.074-.38.929-.38 1.9 0 .972-.18 1.767-.4 1.767-.228 0-.4 1.193-.4 2.78 0 2.03-.159 2.869-.588 3.109-.463.259-.647 1.773-.866 7.115-.197 4.813-.433 6.94-.812 7.319-.361.361-.534 1.627-.534 3.906 0 1.981-.165 3.371-.4 3.371-.246 0-.4 1.973-.4 5.12 0 2.95-.173 5.293-.408 5.528-.859.859-.037 62.552.833 62.552.206 0 .375 1.607.375 3.571 0 2.444.168 3.74.534 4.105.369.37.617 2.373.805 6.516.212 4.672.402 6.055.866 6.315.438.245.595 1.069.595 3.113 0 1.587.172 2.78.4 2.78.22 0 .4.525.4 1.167 0 .641.182 1.227.405 1.301.223.075.519 1.62.659 3.434s.408 3.298.595 3.298c.188 0 .341.81.341 1.8 0 1.333.156 1.8.6 1.8.443 0 .6.463.6 1.771 0 .975.245 2.017.545 2.317.301.301.675 1.926.834 3.629.159 1.695.454 3.083.655 3.083s.366.636.366 1.413c0 .886.223 1.498.6 1.642.405.156.6.792.6 1.959 0 .951.248 1.977.552 2.281.303.303.685 1.521.848 2.705s.545 2.402.848 2.705c.304.304.552 1.079.552 1.724 0 .644.18 1.171.4 1.171s.4.521.4 1.157c0 .66.258 1.256.6 1.388.351.134.6.734.6 1.442 0 .667.18 1.213.4 1.213s.4.621.4 1.38c0 .824.247 1.519.613 1.723.337.189.727 1.051.868 1.917.14.865.494 1.813.787 2.105.293.293.532.879.532 1.304 0 .424.18.771.4.771s.4.527.4 1.171c0 .645.261 1.433.58 1.752.319.318.7 1.49.848 2.604.152 1.143.509 2.117.82 2.236.304.117.552.488.552.824 0 .337.18.613.4.613s.4.45.4 1c0 .622.227 1 .6 1 .4 0 .6.4.6 1.2 0 .66.18 1.2.4 1.2s.4.456.4 1.013c0 .556.251 1.109.559 1.226.307.118.678 1.013.824 1.988.173 1.153.467 1.773.842 1.773.347 0 .575.397.575 1 0 .55.18 1 .4 1s.4.261.4.58.242.724.538.9.654.915.795 1.643.529 1.596.862 1.929.605.952.605 1.377c0 .424.16.771.357.771.196 0 .469.45.607 1s.428 1 .644 1c.215 0 .392.347.392.771 0 .425.27 1.042.6 1.372s.6.773.6.986c0 .212.27.489.6.616.33.126.6.608.6 1.071s.27 1.111.6 1.441.6.947.6 1.372c0 .424.27.771.6.771s.6.27.6.6.16.6.357.6c.196 0 .469.45.607 1s.414 1 .612 1 .487.575.641 1.277c.154.703.529 1.526.832 1.829s.551.808.551 1.123c0 .314.16.571.357.571.196 0 .469.45.607 1s.428 1 .644 1c.215 0 .392.245.392.544s.444.877.987 1.285 1.097 1.243 1.232 1.856c.134.613.5 1.115.813 1.115.312 0 .568.283.568.629 0 .345.225.879.5 1.186 1.222 1.362 1.483 1.778 1.727 2.751.143.569.51 1.034.816 1.034.307 0 .557.294.557.654s.443 1.065.984 1.566c.541.502 1.1 1.377 1.243 1.946s.51 1.034.816 1.034c.307 0 .557.351.557.781 0 .429.606 1.374 1.347 2.1.741.725 1.479 1.742 1.64 2.258.325 1.047 1.597 2.461 2.213 2.461.22 0 .4.284.4.631s.54 1.171 1.2 1.831 1.2 1.436 1.2 1.726.27.63.6.757c.33.126.6.592.6 1.035 0 .516.345.891.962 1.046.529.133 1.056.6 1.171 1.038.114.437.581.893 1.037 1.012.458.12.83.545.83.949 0 .402.9 1.617 2 2.699 1.1 1.083 2 2.173 2 2.423 0 .249.177.453.392.453.216 0 .506.45.644 1s.501 1 .807 1c.307 0 .557.189.557.42 0 .682 2.624 3.18 3.34 3.18.401 0 .66.325.66.827 0 .781 1.728 2.751 7.275 8.298 1.251 1.251 2.713 2.646 3.249 3.099.536.454 1.099 1.219 1.252 1.7.153.482.446.876.651.876s.373.248.373.55.54.658 1.2.79c.953.191 1.2.448 1.2 1.25 0 .631.225 1.01.6 1.01.33 0 .6.27.6.6s.267.6.592.6c.326 0 .702.434.835.965.144.575.633 1.064 1.208 1.208.531.133.965.509.965.835 0 .325.358.592.796.592.444 0 1.725.976 2.9 2.21 2.003 2.104 6.183 6.314 7.538 7.592.348.329.767.598.93.598.164 0 .838.54 1.498 1.2s1.456 1.2 1.769 1.2.569.257.569.572c0 .771 2.546 3.428 3.285 3.428.753 0 2.715 1.671 2.715 2.313 0 .268.27.487.6.487s.6.18.6.4.272.4.604.4.912.36 1.289.8.915.8 1.196.8.511.27.511.6.193.6.429.6c.533 0 1.571 1.01 1.571 1.528 0 .212.473.504 1.05.649.578.145 1.713.974 2.523 1.843.811.869 1.688 1.58 1.95 1.58s.477.18.477.4.27.4.6.4.6.25.6.557c0 .306.474.675 1.052.82.579.146 1.853 1.065 2.832 2.044 1.126 1.126 2.135 1.779 2.748 1.779.594 0 .968.232.968.6 0 .33.257.6.572.6s.63.405.7.9c.085.595.45.946 1.079 1.035.523.073 1.354.568 1.846 1.1.492.531 1.189.965 1.549.965s.654.267.654.592c0 .326.45.706 1 .844s1 .501 1 .807c0 .321.406.557.957.557.527 0 1.061.27 1.188.6.126.33.506.6.842.6.337 0 .613.18.613.4s.272.4.604.4.912.36 1.289.8.872.8 1.101.8.754.45 1.167 1 .971 1 1.24 1c.27 0 .919.426 1.444.946s1.388 1.081 1.917 1.247c.53.165 1.36.73 1.846 1.254s1.178.953 1.538.953.654.27.654.6c0 .358.368.6.911.6.501 0 1.219.36 1.596.8s.97.8 1.318.8.883.225 1.19.5c1.296 1.162 1.771 1.5 2.112 1.5.199 0 .699.45 1.112 1s1.068 1 1.456 1 .705.256.705.568c0 .313.54.687 1.2.832s1.2.429 1.2.632c0 .202.405.369.9.37s1.467.533 2.159 1.182c.693.649 1.773 1.306 2.4 1.46.628.154 1.531.695 2.007 1.202s1.331 1.038 1.9 1.181 1.034.42 1.034.616c0 .197.271.357.603.357.331 0 .986.441 1.455.98.468.539 1.412 1.103 2.097 1.253.685.149 1.641.698 2.126 1.219 1.258 1.354 3.606 1.337 3.949-.028.16-.64.619-1.059 1.33-1.215.596-.131 1.339-.592 1.651-1.024.311-.432.936-.785 1.388-.785.453 0 1.131-.36 1.508-.8s1.047-.8 1.489-.8.804-.177.804-.392c0-.216.437-.502.971-.636.534-.135 1.068-.498 1.188-.808.119-.31.672-.564 1.228-.564.634 0 1.013-.225 1.013-.6 0-.336.357-.6.813-.6.446 0 .916-.27 1.042-.6.127-.33.481-.6.788-.6.306 0 .557-.157.557-.35 0-.192.54-.458 1.2-.59.704-.141 1.2-.492 1.2-.85 0-.336.32-.61.712-.61.391 0 .971-.36 1.288-.8s.767-.8.999-.8c.233 0 .731-.36 1.108-.8s1.056-.8 1.508-.8c.453 0 1.229-.438 1.724-.972.496-.535 1.387-1.095 1.981-1.244s1.08-.521 1.08-.827c0-.307.294-.557.654-.557s1.065-.443 1.566-.984c.502-.541 1.377-1.1 1.946-1.243s1.034-.51 1.034-.816c0-.307.384-.557.854-.557s1.271-.45 1.781-1 1.115-1 1.346-1c.23 0 .419-.18.419-.4s.27-.4.6-.4.6-.27.6-.6c0-.359.369-.6.919-.6.53 0 1.334-.5 1.9-1.183.539-.651 1.386-1.191 1.881-1.2s.9-.267.9-.574c0-.306.482-.677 1.072-.825.589-.148 1.745-.963 2.568-1.812.824-.848 1.916-1.601 2.429-1.674.609-.086.975-.443 1.059-1.032.07-.495.385-.9.7-.9s.572-.27.572-.6c0-.358.368-.6.911-.6.501 0 1.209-.315 1.572-.7 1.142-1.21 1.863-1.7 2.5-1.7.339 0 .617-.267.617-.592 0-.326.45-.706 1-.844s1-.501 1-.807c0-.307.292-.557.65-.557.357 0 1.516-.894 2.574-1.986s2.386-2.102 2.95-2.243c.564-.142 1.026-.508 1.026-.814 0-.307.193-.557.429-.557.553 0 1.571-1.018 1.571-1.571 0-.236.346-.429.769-.429s1.309-.54 1.969-1.2 1.373-1.2 1.585-1.2c.211 0 .478-.36.593-.8s.496-.8.847-.8c.35 0 .637-.168.637-.373s.405-.5.9-.656c1.1-.345 3.5-2.813 3.5-3.599 0-.316.38-.572.85-.572.504 0 1.882-1.016 3.391-2.5 1.397-1.375 3.04-2.969 3.65-3.543s1.763-1.78 2.562-2.681c.8-.9 1.925-1.756 2.5-1.9.576-.145 1.047-.436 1.047-.648 0-.453 1.012-1.528 1.438-1.528.162 0 .58-.269.928-.597 2.765-2.607 3.234-3.127 3.234-3.59 0-.29.438-.636.973-.771.536-.134 1.083-.587 1.216-1.006s.505-.863.826-.986c.322-.124.585-.501.585-.837 0-.337.189-.613.42-.613.576 0 3.18-2.572 3.18-3.14 0-.253.357-.46.792-.46.512 0 .882-.354 1.044-1 .138-.55.501-1 .807-1 .307 0 .557-.283.557-.629 0-.718.934-1.771 1.571-1.771.236 0 .429-.262.429-.583 0-.32 1.62-2.179 3.6-4.131s3.6-3.76 3.6-4.018c0-.257.18-.468.4-.468s.4-.27.4-.6.27-.6.6-.6.6-.27.6-.6.18-.6.4-.6c.519 0 2-1.481 2-2 0-.22.27-.4.6-.4.354 0 .603-.37.607-.9.007-.922 1.554-2.7 2.349-2.7.244 0 .444-.204.444-.453s.315-.747.7-1.106c.823-.767 1.632-1.973 1.949-2.904.124-.365.568-.753.988-.863.447-.116.763-.549.763-1.043 0-.479.78-1.592 1.8-2.569.99-.949 1.8-1.936 1.8-2.193 0-.258.18-.469.4-.469s.4-.27.4-.6.27-.6.6-.6c.366 0 .6-.373.6-.953 0-.604.583-1.481 1.59-2.39.874-.79 1.704-1.891 1.843-2.447.14-.555.504-1.01.81-1.01.307 0 .557-.27.557-.6s.18-.6.4-.6.4-.272.4-.604.36-.912.8-1.289.8-.915.8-1.196.177-.511.392-.511c.216 0 .506-.45.644-1s.411-1 .607-1c.197 0 .357-.257.357-.571 0-.315.24-.811.533-1.104.292-.293.656-1.026.807-1.629s.542-1.096.868-1.096c.325 0 .592-.317.592-.705s.45-1.043 1-1.456 1-1.094 1-1.514.459-1.188 1.019-1.708c.565-.523 1.123-1.584 1.253-2.381.135-.835.462-1.436.78-1.436.302 0 .548-.27.548-.6s.18-.6.4-.6.4-.276.4-.613c0-.336.27-.716.6-.842.33-.127.6-.661.6-1.188 0-.557.236-.957.565-.957.353 0 .672-.638.851-1.7.168-.995.68-2.065 1.235-2.581.522-.484.949-1.249.949-1.7 0-.461.262-.819.6-.819.333 0 .6-.356.6-.8 0-.44.16-.8.357-.8.196 0 .475-.472.619-1.048.145-.577.525-1.31.844-1.629s.58-1.107.58-1.752c0-.774.203-1.171.6-1.171.373 0 .6-.378.6-1 0-.55.18-1 .4-1s.4-.276.4-.613c0-.336.249-.708.553-.824.304-.117.666-.921.805-1.788.138-.866.421-1.575.629-1.575.207 0 .495-.63.639-1.4.145-.77.423-1.4.619-1.4.195 0 .355-.437.355-.971 0-.535.27-1.242.6-1.572s.6-.793.6-1.028c0-.236.18-.429.4-.429s.4-.347.4-.771c0-.425.244-1.016.542-1.313.297-.298.668-1.391.824-2.429.187-1.244.479-1.887.859-1.887.404 0 .575-.475.575-1.6 0-.88.18-1.6.4-1.6s.4-.257.4-.571c0-.315.244-.816.542-1.113.297-.298.668-1.391.824-2.429.187-1.244.479-1.887.859-1.887.404 0 .575-.475.575-1.6 0-.88.18-1.6.4-1.6s.4-.456.4-1.013c0-.556.27-1.116.6-1.242.355-.137.602-.743.605-1.488.009-1.909.407-3.007 1.18-3.252.553-.176.753-.866.959-3.299.178-2.103.449-3.182.858-3.411.329-.184.598-.789.598-1.343 0-.555.27-1.279.6-1.609s.6-1.217.6-1.972c0-.754.161-1.371.358-1.371s.485-1.428.64-3.172c.19-2.148.461-3.242.841-3.388.367-.14.561-.842.561-2.027 0-1.345.155-1.813.6-1.813.453 0 .6-.489.6-2 0-1.1.154-2 .342-2s.45-1.289.582-2.865.422-2.978.644-3.115c.222-.138.527-1.998.677-4.135s.427-3.885.614-3.885c.188 0 .341-.27.341-.6s.162-.6.361-.6c.198 0 .489-2.059.646-4.575.208-3.323.437-4.633.839-4.787.418-.161.554-1.148.554-4.025 0-2.275.161-3.813.4-3.813.237 0 .4-1.46.4-3.58 0-2.966.118-3.646.686-3.964.944-.528 1.07-66.265.128-66.847-.395-.245-.603-1.596-.734-4.775-.101-2.439-.34-4.434-.531-4.434-.192 0-.349-1.62-.349-3.6 0-2.757-.127-3.6-.54-3.6-.416 0-.606-1.318-.821-5.7-.154-3.135-.451-5.76-.659-5.833-.209-.074-.38-.659-.38-1.3 0-.642-.155-1.167-.345-1.167s-.474-1.753-.631-3.896c-.164-2.23-.485-4.018-.751-4.183-.27-.166-.527-1.643-.612-3.504-.08-1.769-.307-3.217-.503-3.217-.197 0-.358-.996-.358-2.213 0-1.597-.167-2.276-.6-2.442-.429-.165-.6-.836-.6-2.359 0-1.351-.217-2.346-.595-2.724-.382-.382-.69-1.823-.859-4.029-.145-1.888-.395-3.433-.554-3.433-.16 0-.38-.937-.49-2.083s-.403-2.151-.651-2.233c-.248-.083-.451-.946-.451-1.917 0-1.237-.166-1.767-.553-1.767-.406 0-.63-.928-.843-3.491-.217-2.601-.474-3.649-1.008-4.112-.45-.391-.827-1.503-1.013-2.995-.163-1.305-.541-2.617-.84-2.916s-.543-1.07-.543-1.715c0-.644-.18-1.171-.4-1.171s-.4-.797-.4-1.771c0-1.021-.248-2.02-.584-2.356-.322-.322-.706-1.764-.853-3.206-.169-1.645-.473-2.7-.816-2.832-.301-.115-.547-.756-.547-1.422 0-.667-.18-1.213-.4-1.213s-.4-.72-.4-1.6c0-1.126-.171-1.6-.576-1.6-.419 0-.65-.754-.849-2.776-.176-1.783-.471-2.852-.824-2.988-.342-.131-.551-.823-.551-1.823 0-.887-.18-1.613-.4-1.613s-.4-.521-.4-1.157c0-.66-.258-1.256-.6-1.388-.377-.144-.6-.756-.6-1.642 0-.777-.18-1.413-.4-1.413s-.4-.347-.4-.771c0-.425-.253-1.025-.563-1.335s-.689-1.571-.843-2.802c-.166-1.332-.505-2.326-.837-2.453-.307-.118-.557-.759-.557-1.426 0-1.389-2.919-1.837-4.123-.633-.318.319-1.49.7-2.604.848-1.143.152-2.117.509-2.236.82-.117.304-.758.552-1.424.552-.667 0-1.213.18-1.213.4s-.726.4-1.613.4c-1.007 0-1.692.209-1.826.556-.134.35-1.158.658-2.755.829-1.635.175-2.62.476-2.762.843-.145.379-.829.572-2.031.572-.997 0-1.813.18-1.813.4s-.977.4-2.171.4c-1.349 0-2.388.217-2.744.572-.37.37-1.964.674-4.518.861-2.423.178-4.155.498-4.486.828-.33.331-1.455.539-2.91.539-1.314 0-2.371.178-2.371.4 0 .236-1.41.4-3.429.4-2.514 0-3.588.16-4.028.6-.466.466-1.664.6-5.372.6-2.914 0-4.771.156-4.771.4 0 .252-2.733.4-7.4.4s-7.4-.148-7.4-.4c0-.247-2.057-.4-5.371-.4-4.242 0-5.498-.126-5.972-.6-.44-.44-1.514-.6-4.028-.6-2.019 0-3.429-.164-3.429-.4 0-.222-1.057-.4-2.371-.4-1.455 0-2.58-.208-2.91-.539-.331-.33-2.063-.65-4.486-.828-2.554-.187-4.148-.491-4.518-.861-.356-.355-1.395-.572-2.744-.572-1.194 0-2.171-.18-2.171-.4s-.801-.4-1.78-.4c-1.164 0-1.896-.207-2.115-.598-.229-.409-1.309-.68-3.42-.859-2.198-.185-3.085-.416-3.085-.802 0-.352-.49-.541-1.4-.541-.77 0-1.4-.18-1.4-.4s-.54-.4-1.2-.4c-.778 0-1.2-.203-1.2-.576 0-.42-.758-.65-2.8-.851-1.971-.195-2.8-.439-2.8-.825 0-.318-.42-.548-1-.548-.55 0-1-.18-1-.4s-.521-.4-1.157-.4c-.66 0-1.256-.258-1.388-.6-.131-.343-.728-.6-1.393-.6-.64 0-1.388-.27-1.662-.6s-.911-.6-1.416-.6c-.504 0-.979-.184-1.054-.409-.075-.226-.855-.523-1.733-.661s-1.741-.494-1.917-.791c-.176-.296-.742-.539-1.257-.539-.516 0-1.041-.27-1.168-.6-.126-.33-.506-.6-.842-.6-.337 0-.613-.156-.613-.348 0-.191-.632-.45-1.404-.575s-1.685-.509-2.029-.853c-.343-.343-.971-.624-1.396-.624-.424 0-.771-.16-.771-.357 0-.196-.45-.469-1-.607s-1-.428-1-.644c0-.215-.338-.392-.751-.392s-.975-.27-1.249-.6-.746-.6-1.049-.6-.551-.157-.551-.349-.7-.461-1.556-.598c-.856-.136-1.661-.52-1.788-.851-.227-.592-2.024-.73-4.156-.32m4.3 26.019c0 .165 1.08.81 2.4 1.434 1.32.623 2.4 1.298 2.4 1.499s.222.366.494.366c.471 0 4.688 1.982 5.106 2.4.414.414 4.84 2.4 5.347 2.4.681 0 2.967 1.137 3.269 1.625.127.206.581.375 1.008.375s.776.18.776.4.416.4.925.4 1.67.36 2.581.8c.91.44 2.03.8 2.487.8.458 0 .936.27 1.062.6.127.33.664.6 1.193.6.96 0 1.223.098 3.614 1.343.694.361 1.628.657 2.076.657s.926.18 1.062.4.676.4 1.2.4 1.064.18 1.2.4.946.4 1.8.4 1.664.18 1.8.4.699.4 1.252.4 1.275.27 1.605.6 1.297.6 2.148.6 1.659.18 1.795.4.946.4 1.8.4 1.664.18 1.8.4.935.4 1.775.4c.886 0 1.741.258 2.038.615.342.413 1.084.586 2.254.525.958-.049 1.957.124 2.218.385.265.265 1.578.475 2.971.475 1.373 0 2.608.18 2.744.4s1.385.4 2.775.4c1.428 0 3.201.282 4.076.649 1.168.489 2.245.59 4.38.411 1.978-.166 2.978-.091 3.319.251.716.717 26.025.937 28.25.246.88-.273 3.205-.51 5.166-.527 2.474-.021 3.617-.183 3.733-.53.115-.344 1.157-.5 3.334-.5 1.845 0 3.167-.167 3.167-.4 0-.23 1.24-.4 2.92-.4 1.721 0 3.115-.195 3.395-.475.261-.261 1.267-.434 2.235-.384 1.153.06 1.973-.121 2.377-.525.391-.391 1.349-.616 2.621-.616 1.103 0 2.116-.18 2.252-.4s.856-.4 1.6-.4 1.464-.18 1.6-.4.922-.4 1.747-.4 1.849-.264 2.277-.587c.427-.323 1.271-.593 1.876-.6s1.1-.193 1.1-.413.81-.4 1.8-.4 1.8-.18 1.8-.4c0-.564 2.541-.499 3.12.08.264.264.48.99.48 1.613 0 .637.262 1.233.6 1.362.37.142.6.75.6 1.588 0 .746.18 1.357.4 1.357s.4.81.4 1.8.18 1.8.4 1.8.4.529.4 1.176.18 1.288.4 1.424.4.935.4 1.775c0 .869.258 1.741.6 2.025.366.304.6 1.18.6 2.249 0 .963.18 1.751.4 1.751s.4.59.4 1.311.282 1.713.626 2.204c.367.524.518 1.23.366 1.709-.15.475.006 1.218.375 1.782.348.531.633 1.592.633 2.356 0 .765.18 1.502.4 1.638s.4 1.115.4 2.175c0 1.219.219 2.109.596 2.422.378.314.508.845.356 1.452-.144.574.017 1.35.404 1.94.354.54.644 1.709.644 2.597s.165 1.614.366 1.614.456 1.125.567 2.5c.277 3.443.822 6.333 1.39 7.374.262.48.477 1.685.477 2.676 0 .992.18 1.914.4 2.05s.4 1.565.4 3.175c0 2.114.167 3.065.6 3.425.417.346.6 1.267.6 3.025 0 1.39.18 2.639.4 2.775s.4 1.486.4 3 .18 2.864.4 3 .4 1.677.4 3.424.152 3.176.338 3.176.456 2.466.601 5.481c.144 3.014.442 5.66.662 5.88s.399 2.504.399 5.095c0 2.7.17 4.802.4 4.944.259.16.4 8.263.4 23s-.141 22.84-.4 23c-.228.141-.4 2.177-.4 4.744 0 2.583-.177 4.673-.417 4.913-.229.229-.526 2.611-.661 5.294s-.398 4.972-.584 5.087-.338 1.538-.338 3.162-.18 3.064-.4 3.2-.4 1.306-.4 2.6-.18 2.464-.4 2.6-.4 1.232-.4 2.436c0 1.577-.168 2.254-.6 2.419-.446.171-.6.881-.6 2.764 0 1.394-.18 2.645-.4 2.781s-.406.822-.414 1.524-.272 1.726-.586 2.276-.578 1.754-.586 2.676-.194 1.788-.414 1.924-.4.946-.4 1.8-.18 1.664-.4 1.8-.4.935-.4 1.775-.251 1.735-.558 1.99c-.524.435-.748 1.286-1.299 4.935-.125.825-.388 1.5-.585 1.5s-.358.459-.358 1.02-.26 1.523-.579 2.139c-.318.615-.485 1.474-.372 1.908.117.448-.065 1.014-.421 1.31-.345.286-.628 1.039-.628 1.672s-.18 1.151-.4 1.151-.4.611-.4 1.357c0 .838-.23 1.446-.6 1.588-.347.133-.6.731-.6 1.419 0 .654-.18 1.3-.4 1.436s-.4.681-.4 1.211c0 .531-.36 1.606-.8 2.389s-.8 1.85-.8 2.369c0 .52-.27 1.049-.6 1.176-.33.126-.6.675-.6 1.219s-.18 1.1-.4 1.236-.4.672-.4 1.19c0 .519-.135 1.003-.3 1.077-.437.194-1.7 2.699-1.7 3.371 0 .315-.164.885-.365 1.267-.978 1.859-2.435 5.224-2.435 5.623 0 .246-.36 1.089-.8 1.872s-.8 1.612-.8 1.841-.272.688-.604 1.02-.5.77-.374.974-.053.479-.397.611-.625.473-.625.759-.345 1.211-.767 2.057-.866 1.808-.987 2.138-.764 1.5-1.428 2.6-1.317 2.27-1.45 2.6c-.632 1.564-1.974 4.261-2.388 4.8-.253.33-.893 1.41-1.421 2.4-.527.99-1.184 1.944-1.459 2.12s-.5.66-.5 1.076-.19.874-.423 1.018c-.232.144-.867 1.234-1.411 2.424-.544 1.189-1.131 2.162-1.304 2.162-.356 0-2.062 3.055-2.062 3.692 0 .229-.45.833-1 1.343s-1 1.177-1 1.484c0 .306-.36.883-.8 1.281s-.8.923-.8 1.166-.45.927-1 1.521c-.55.593-1 1.313-1 1.601 0 .287-.45.86-1 1.273s-1 1.052-1 1.42-.54 1.187-1.2 1.819-1.2 1.355-1.2 1.605c0 .251-.458.886-1.018 1.412s-1.505 1.727-2.1 2.669-1.217 1.713-1.382 1.713c-.165.001-.3.338-.3.75s-.63 1.287-1.4 1.945-1.4 1.466-1.4 1.796-.898 1.441-1.996 2.468-2.252 2.356-2.565 2.954c-.313.599-1.485 2.048-2.604 3.222s-2.035 2.275-2.035 2.446-1.439 1.821-3.199 3.666c-1.759 1.845-3.199 3.527-3.2 3.739-.001.527-23.678 24.215-24.203 24.215-.231 0-2.187 1.71-4.346 3.8s-4.134 3.804-4.389 3.809-1.449.995-2.654 2.2c-1.204 1.205-2.345 2.191-2.534 2.191s-1.454 1.041-2.81 2.314-2.975 2.572-3.599 2.886c-.623.314-1.653 1.163-2.288 1.886-.634.723-1.339 1.314-1.565 1.314s-1.108.63-1.96 1.4c-.853.77-1.718 1.4-1.923 1.4s-.984.63-1.73 1.4-1.547 1.402-1.778 1.403c-.232.002-1.085.632-1.895 1.4-.811.769-1.65 1.397-1.866 1.397s-1.041.63-1.834 1.4-1.677 1.4-1.965 1.4c-.287 0-.945.45-1.462 1s-1.144 1-1.395 1c-.25 0-.984.553-1.63 1.228s-1.76 1.506-2.475 1.845c-.715.34-1.3.778-1.3.973s-.332.354-.738.354-1.071.368-1.479.819c-.407.45-1.335 1.1-2.062 1.445s-1.321.787-1.321.982-.347.354-.771.354-1.125.45-1.558 1c-.432.55-.971 1-1.198 1-.226 0-.921.405-1.544.9-1.403 1.116-2.783 1.9-3.343 1.9-.233 0-.841.45-1.351 1s-1.193 1-1.519 1-.918.36-1.316.8-.985.8-1.304.8c-.32 0-.935.45-1.367 1-.433.55-1.134 1-1.558 1s-.771.18-.771.4-.256.4-.569.4-1.104.45-1.758 1-1.397 1-1.652 1-1.105.436-1.89.969c-1.294.879-2.531 1.002-2.531.251 0-.162-.855-.725-1.9-1.252s-2.731-1.546-3.748-2.263c-1.016-.718-2.11-1.305-2.43-1.305s-1.005-.45-1.522-1-1.08-1-1.252-1c-.313 0-2.921-1.63-3.831-2.394-.266-.223-.733-.406-1.038-.406s-.888-.368-1.296-.819c-.407-.45-1.335-1.1-2.062-1.445s-1.321-.787-1.321-.982-.239-.354-.53-.354c-.292 0-.953-.45-1.47-1s-1.237-1-1.6-1-1.083-.45-1.6-1-1.15-1-1.408-1c-.257 0-.794-.36-1.192-.8s-1.025-.8-1.392-.8c-.368 0-1.091-.45-1.608-1s-1.133-1.002-1.37-1.004c-.236-.003-1.04-.633-1.786-1.4-.746-.768-1.534-1.396-1.752-1.396-.217 0-1.092-.63-1.945-1.4-.852-.77-1.775-1.4-2.052-1.4-.276 0-.727-.36-1.002-.8s-.819-.8-1.208-.8c-.39 0-1.303-.63-2.029-1.4-.727-.77-1.537-1.4-1.8-1.4-.264 0-1.074-.63-1.8-1.4-.727-.77-1.533-1.4-1.793-1.4-.259 0-1.189-.688-2.067-1.528s-2.406-2.081-3.396-2.757c-.99-.677-2.236-1.699-2.77-2.273-.533-.573-1.163-1.043-1.4-1.045-.236-.002-1.24-.804-2.23-1.782s-1.98-1.79-2.2-1.803c-.22-.014-1.894-1.462-3.721-3.219-1.826-1.756-3.517-3.193-3.758-3.193-.24 0-2.329-1.89-4.642-4.2s-4.404-4.2-4.648-4.2c-.518 0-10.754-10.252-11.322-11.34-.212-.407-3.162-3.557-6.555-7s-6.427-6.765-6.741-7.382c-.315-.618-1.346-1.836-2.293-2.709-.946-.872-1.72-1.736-1.72-1.919 0-.184-1.08-1.513-2.4-2.953-1.32-1.441-2.4-2.789-2.4-2.996 0-.208-.383-.72-.852-1.139-.468-.419-1.298-1.482-1.843-2.362s-1.601-2.176-2.348-2.88c-.746-.703-1.357-1.468-1.357-1.698 0-.231-.63-1.117-1.4-1.969-.77-.853-1.4-1.8-1.4-2.105 0-.306-.349-.774-.776-1.04-.426-.266-1.077-1.12-1.445-1.896-.369-.777-.83-1.412-1.025-1.412s-.354-.256-.354-.569-.45-1.104-1-1.758-1-1.352-1-1.552-.63-.975-1.4-1.721-1.4-1.615-1.4-1.931c0-.315-.586-1.405-1.301-2.421-.716-1.017-1.556-2.343-1.868-2.948-.311-.605-.716-1.1-.899-1.1-.182 0-.332-.248-.332-.551s-.27-.775-.6-1.049-.6-.836-.6-1.249-.165-.751-.366-.751-.876-1.08-1.499-2.4c-.624-1.32-1.269-2.4-1.434-2.4-.166 0-.301-.244-.301-.542 0-.297-.45-1.027-1-1.62-.55-.594-1-1.203-1-1.355 0-.272-3.683-7.711-4.397-8.883-.79-1.295-2.803-5.816-2.803-6.294 0-.278-.177-.506-.392-.506-.216 0-.506-.45-.644-1s-.411-1-.607-1c-.197 0-.357-.265-.357-.588s-.377-1.259-.839-2.081c-.461-.821-.907-1.861-.992-2.312-.085-.45-.499-1.539-.92-2.419s-1.059-2.267-1.418-3.083-.828-1.591-1.042-1.724c-.214-.132-.389-.759-.389-1.393s-.18-1.264-.4-1.4-.4-.676-.4-1.2-.18-1.064-.4-1.2-.4-.602-.4-1.036-.27-.893-.6-1.019c-.338-.13-.6-.726-.6-1.364 0-.624-.18-1.245-.4-1.381s-.4-.766-.4-1.4-.18-1.264-.4-1.4-.4-.676-.4-1.2-.18-1.064-.4-1.2-.4-.674-.4-1.195-.27-1.218-.6-1.548-.6-1.052-.6-1.605-.18-1.116-.4-1.252-.406-.732-.413-1.324-.277-1.425-.6-1.852c-.323-.428-.587-1.182-.587-1.677s-.18-1.011-.4-1.147-.4-.946-.4-1.8-.18-1.664-.4-1.8-.4-.647-.4-1.135-.243-1.242-.541-1.676-.538-1.409-.533-2.167c.004-.758-.203-1.448-.459-1.533-.257-.086-.467-.85-.467-1.699 0-.848-.18-1.654-.4-1.79s-.4-.921-.4-1.744-.215-1.711-.479-1.975c-.432-.432-.639-1.435-1.378-6.681-.124-.88-.387-1.771-.584-1.98s-.359-1.402-.359-2.651c0-1.531-.196-2.433-.6-2.769-.381-.317-.6-1.2-.6-2.425 0-1.06-.18-2.039-.4-2.175s-.4-1.666-.4-3.4-.18-3.264-.4-3.4-.4-1.666-.4-3.4-.18-3.264-.4-3.4-.4-1.732-.4-3.547c0-2.282-.181-3.54-.587-4.077-.478-.631-.59-2.578-.6-10.452-.008-6.006-.165-9.771-.413-9.924-.544-.336-.544-22.064 0-22.4.249-.154.405-4.118.413-10.524.01-8.402.12-10.418.6-11.052.412-.546.587-1.819.587-4.277 0-1.925.18-3.611.4-3.747s.4-1.846.4-3.8.18-3.664.4-3.8c.221-.136.4-1.93.4-4s.179-3.864.4-4c.22-.136.4-1.412.4-2.836 0-1.932.152-2.648.6-2.819.446-.171.6-.881.6-2.764 0-1.394.18-2.645.4-2.781s.4-1.058.4-2.05c0-.991.198-2.173.441-2.626.242-.453.429-1.775.415-2.938-.016-1.392.175-2.28.56-2.599.364-.303.584-1.21.584-2.412 0-1.06.18-2.039.4-2.175s.406-1.002.413-1.924.274-2.022.594-2.444c.395-.522.503-1.256.337-2.293-.191-1.191-.102-1.58.406-1.775.464-.178.65-.754.65-2.007 0-.966.18-1.757.4-1.757s.4-.799.4-1.776.18-1.888.4-2.024.406-.912.413-1.724.277-1.825.6-2.252c.323-.428.587-1.362.587-2.077s.18-1.411.4-1.547.4-.921.4-1.744.202-1.698.448-1.944c.456-.456 1.049-2.706 1.427-5.415.115-.826.37-1.602.567-1.723.197-.122.358-.74.358-1.374s.18-1.264.4-1.4.4-.935.4-1.775c0-.869.258-1.741.6-2.025.33-.274.6-.89.6-1.369 0-2.353 2.782-4.279 3.8-2.631.136.22.957.4 1.824.4s1.576.18 1.576.4.506.4 1.124.4c.617 0 1.472.264 1.9.587.427.323 1.53.593 2.452.6s1.788.193 1.924.413 1.047.4 2.024.4 1.776.18 1.776.4.795.4 1.767.4c.977 0 1.835.206 1.92.46.084.254 1.183.546 2.441.651 1.258.104 2.384.347 2.503.539.119.193 1.545.35 3.169.35s3.064.18 3.2.4 1.385.4 2.775.4c1.429 0 3.2.282 4.076.649 1.191.5 2.289.596 4.749.416 2.466-.179 3.378-.099 3.976.351 1.192.896 26.447.863 27.732-.036.681-.478 1.43-.559 3.255-.352 1.754.198 2.951.085 4.605-.436 1.529-.48 2.866-.628 4.226-.467 1.454.172 2.145.079 2.569-.345.396-.396 1.468-.58 3.385-.58 1.543 0 2.916-.18 3.052-.4s.935-.4 1.775-.4c.869 0 1.741-.258 2.025-.6.317-.381 1.2-.6 2.425-.6 1.06 0 2.039-.18 2.175-.4s.946-.4 1.8-.4 1.652-.161 1.774-.358c.121-.197.897-.442 1.723-.546 1.456-.182 3.571-.838 4.998-1.55.382-.19 1.136-.346 1.676-.346s1.093-.18 1.229-.4.614-.4 1.062-.4 1.292-.252 1.876-.559 1.872-.778 2.862-1.046c.99-.267 2.16-.632 2.6-.809.44-.178 1.295-.431 1.9-.563.605-.131 1.1-.415 1.1-.631 0-.215.349-.392.776-.392s.888-.18 1.024-.4.681-.4 1.211-.4c.531 0 1.606-.36 2.389-.8s1.757-.8 2.163-.8c.407 0 .963-.27 1.237-.6s.711-.6.97-.6c.398 0 2.044-.771 5.03-2.357 1.955-1.038 2.45-1.243 3.003-1.243.337 0 1.326-.45 2.197-1s1.858-1 2.192-1 .608-.159.608-.354.622-.65 1.383-1.011 1.477-.809 1.593-.996c.115-.186.7-.339 1.3-.339s1.158-.202 1.241-.45c.164-.493 3.683-.636 3.683-.149m-31.8 55.183c-4.26.583-12.2 4.319-12.2 5.74 0 .157 1.215.509 2.7.782 9.999 1.837 16.223 9.738 16.224 20.594 0 7.92-3.441 14.852-13.234 26.656-2.88 3.471-2.89 3.484-2.89 3.707 0 .108-.584 1.061-1.298 2.117-4.607 6.815-6.452 13.263-6.446 22.52.013 19.036 7.607 30.464 31.102 46.803 1.738 1.209 3.538 2.563 4 3.01.463.447 1.348 1.134 1.966 1.525 3.598 2.279 11.193 10.724 13.365 14.862 2.988 5.693 4.202 16.905 2.576 23.8-1.979 8.394-2.724 10.55-5.524 15.989-4.618 8.968-10.542 13.124-21.341 14.974-3.135.536-5.6 3.334-5.6 6.355 0 .966-.313 1.632-1.1 2.341-.605.545-1.46 1.497-1.9 2.116s-1.175 1.598-1.633 2.175c-.458.578-1.245 1.86-1.75 2.85-.504.99-1.075 2.07-1.268 2.4-2.515 4.3-4.049 11.233-2.549 11.526.44.086 1.1.423 1.467.748.6.531.957.37 3.545-1.602 1.583-1.206 3.67-2.6 4.639-3.098.968-.498 1.96-1.146 2.204-1.44.243-.294.617-.534.829-.534.213 0 2.036-.791 4.051-1.758 18.673-8.956 46.072-9.428 55.336-.953 2.071 1.894 1.66.273-.663-2.614-6.343-7.886-11.99-12.008-21.608-15.775-4.77-1.869-6.377-4.235-6.391-9.416-.018-6.458 1.54-7.73 11.873-9.69 5.357-1.016 9.673-3.676 13.455-8.291 2.373-2.896 1.628-3.153-2.042-.703-1.318.88-2.575 1.6-2.795 1.6-.219 0-1.186.341-2.149.758-4.984 2.157-15.051 1.659-13.089-.649.332-.39.916-1.339 1.297-2.109.986-1.99 2.963-5.194 4.941-8.007 1.96-2.787 1.946-2.724.929-4.47-2.087-3.58-2.114-14.339-.048-18.923.199-.44.853-2.33 1.454-4.2 5.303-16.491 22.065-33.809 35.113-36.276.689-.13 1.455-.395 1.702-.588.443-.345 3.806-.841 9.75-1.436l3-.3-.071-4c-.108-6.126-.801-14.713-1.464-18.128-.328-1.69-.713-3.927-.855-4.972-.298-2.186-.446-2.226-5.572-1.485-5.889.851-5.254-1.705 1.234-4.96 1.139-.572 2.165-1.191 2.28-1.377.603-.976-3.471-10.871-4.478-10.876-.808-.003-6.932 2.534-9.829 4.072-4.109 2.183-7.108 4.451-10.915 8.255-3.122 3.12-5.018 5.778-7.468 10.471-1.114 2.133-4.438 10.969-5.041 13.4-2.473 9.963-11.486 7.828-21.952-5.2-9.625-11.981-11.118-20.024-8.238-44.4.416-3.53.678-9.075.707-15 .047-9.568.058-9.463-1.688-16.222-2.474-9.579-12.949-14.568-26.65-12.694m12.531 4.47c5.469 1.466 9.185 5.305 10.498 10.846.183.77.544 2.3.803 3.4.571 2.423.539 16.869-.048 21.8-.704 5.908-1.595 15.256-1.84 19.3-.131 2.145-.351 3.89-.491 3.877-4.363-.397-10.594-3.604-12.932-6.655-3.364-4.39-3.287-8.641.321-17.722l1.509-3.8.161-7.9c.125-6.152.276-7.9.683-7.9.287 0 1.081-.636 1.764-1.414 2.901-3.304.305-12.01-3.19-10.695-2.044.769-5.788-2.339-4.441-3.686.37-.37 5.129-.007 7.203.549m-16.179 210.09c-2.528 2.289-6.325 6.435-7.286 7.956-.347.55-1.011 1.469-1.474 2.042-1.116 1.379-3.922 6.919-4.591 9.062-.844 2.704 1.781 5.022 3.167 2.796.308-.495 1.1-1.545 1.76-2.332 1.101-1.315 1.571-2.52 2.707-6.95.223-.87.782-2.31 1.242-3.2.459-.89 1.196-2.338 1.637-3.218s1.196-2.14 1.679-2.8c2.153-2.945 3.797-5.4 3.614-5.4-.109 0-1.214.92-2.455 2.044m41.448 6.202c-8.687.703-16.998 2.524-22.6 4.953-6.613 2.867-15.622 8.113-17.85 10.394-1.239 1.269-1.2 8.321.05 8.972 4.826 2.512 3.622 1.936 10.8 5.171 3.579 1.614 5.634 2.487 8.6 3.657 1.54.607 3.61 1.426 4.6 1.82 4.24 1.687 15.259 5.197 15.619 4.975.216-.133.638-.828.937-1.544 2.55-6.103 8.054-7.613 19.215-5.272 8.767 1.839 11.829 4.586 11.829 10.61v2.518l1.288-.258c1.396-.279 1.973-.974 2.361-2.842.137-.66.555-2.28.928-3.6.794-2.806.989-15.69.279-18.4-.23-.88-.634-2.41-.896-3.4-1.147-4.326-2.688-7.39-4.758-9.465-5.426-5.436-19.212-9.195-30.402-8.289m-47.4 14.037c-2.983.674-5.554 8.259-4.033 11.899 2.54 6.079 8.998-.62 7.982-8.28-.375-2.828-1.774-4.111-3.949-3.619m-9.371 5.217c-.551 2.057-1.222 8.173-1.226 11.176-.003 2.528.654 3.771 1.092 2.064.133-.517.931-2.254 1.773-3.859 2.062-3.93 2.235-8.058.41-9.806-1.449-1.389-1.57-1.363-2.049.425m11.831 9.398-1.94 2.016.49 3.15c.27 1.733.648 3.248.84 3.367.193.119.35.757.35 1.418 0 .662.339 2.046.753 3.077s.984 2.642 1.266 3.58.753 1.905 1.047 2.149c.294.243.534.698.534 1.01 0 .754 1.457 3.622 2.646 5.208.525.701.954 1.482.954 1.736 0 2.279 10.447 12.86 15.402 15.599 1.319.729 2.668 1.528 2.998 1.776.545.408 3.465 1.392 6 2.02.55.136 2.328.596 3.951 1.022 3.205.841 7.47 1.01 9.421.373.675-.22 2.938-.958 5.028-1.638 6.906-2.248 13.543-6.477 18.72-11.929 2.363-2.487 5.68-6.613 5.68-7.064 0-.161.45-.882 1-1.604.55-.721 1-1.571 1-1.888 0-.318.251-.786.557-1.04 1.254-1.041 1.061-2.036-.394-2.036-1.083 0-1.363.16-1.363.776 0 .427-.18.888-.4 1.024s-.4.517-.4.848c0 1.285-3.299 4.948-5.499 6.106-4.342 2.285-17.623.437-21.624-3.009-2.812-2.423-3.833-4.696-3.896-8.682l-.052-3.257-1.365-.467c-.75-.257-2.894-.942-4.764-1.521-1.87-.58-4.48-1.474-5.8-1.987s-3.48-1.328-4.8-1.811c-5.852-2.143-14.055-5.729-20.722-9.06-3.378-1.688-3.27-1.702-5.618.738m-8.574 2.009c-.64 1.151-1.401 2.723-1.689 3.493-.289.77-.676 1.571-.861 1.78s-.336 1.833-.336 3.609c0 10.158 10.806 25.315 22.412 31.435 1.423.751 2.791 1.557 3.038 1.792.248.235 1.598.752 3 1.15 1.403.397 2.91.878 3.35 1.069 3.324 1.441 9.152 2.582 7.6 1.488-.44-.31-1.61-.912-2.6-1.337-9.51-4.085-19.521-14.082-23.82-23.786-.342-.77-.868-1.94-1.171-2.6-1.013-2.21-1.714-3.989-2.128-5.4-.225-.77-.695-2.3-1.043-3.4-.349-1.1-.809-3.08-1.023-4.4-.631-3.886-.89-5-1.164-5-.143 0-.741-.447-1.33-.993l-1.071-.993zm60.783 4.522c-1.934.974-5.269 4.389-5.269 5.396 0 .194 1.035.64 2.3.991s2.78.791 3.366.978c1.208.386 1.534.199 1.534-.881 0-1.473 1.186-3.171 2.123-3.038.789.112.877.361.877 2.478 0 2.128.093 2.388.974 2.715 1.334.495 2.026.143 2.026-1.029 0-1.825.705-3.039 1.763-3.039 1.255 0 1.647 1.151 1.03 3.022-.549 1.662.017 2.691 1.372 2.497.603-.086.946-.564 1.235-1.719.985-3.94 3.138-3.737 2.702.255l-.203 1.855 2.429.282c2.999.348 3.279.182 3.245-1.916-.064-4.042-2.778-6.765-7.665-7.69-1.599-.303-3.988-.853-5.308-1.221-4.179-1.167-6.115-1.153-8.531.064m-6.456 9.155c-1.462 1.762 1.357 7.845 4.279 9.234 2.929 1.391 12.337 3.048 14.776 2.602 2.323-.424 5.302-2.749 6.655-5.192l1.123-2.028-1.823-.071c-1.003-.04-2.226-.085-2.718-.1-.591-.019-.944.242-1.041.771-.334 1.824-2.592 2.975-3.122 1.593-.128-.334-.008-1.15.266-1.813.582-1.405.584-1.403-1.093-1.762-1.176-.252-1.306-.179-1.528.853-.44 2.049-.96 2.929-1.729 2.929-1.334 0-1.792-.971-1.214-2.571.595-1.645.504-1.79-1.301-2.083-1.263-.205-1.384-.128-1.75 1.117-.333 1.132-.577 1.337-1.593 1.337-1.285 0-1.537-.858-.849-2.9.24-.714.152-.901-.424-.906-.4-.003-1.447-.253-2.327-.554-2.961-1.016-4.034-1.123-4.587-.456" fill="#132357"/><path d="m198.317 28.05c-.083.248-.641.45-1.241.45s-1.185.153-1.3.339c-.116.187-.832.635-1.593.996s-1.383.816-1.383 1.011-.274.354-.608.354-1.321.45-2.192 1-1.86 1-2.197 1c-.553 0-1.048.205-3.003 1.243-2.986 1.586-4.632 2.357-5.03 2.357-.259 0-.696.27-.97.6s-.83.6-1.237.6c-.406 0-1.38.36-2.163.8s-1.858.8-2.389.8c-.53 0-1.075.18-1.211.4s-.597.4-1.024.4-.776.177-.776.392c0 .216-.495.5-1.1.631-.605.132-1.46.385-1.9.563-.44.177-1.61.542-2.6.809-.99.268-2.278.739-2.862 1.046s-1.428.559-1.876.559-.926.18-1.062.4-.689.4-1.229.4-1.294.156-1.676.346c-1.427.712-3.542 1.368-4.998 1.55-.826.104-1.602.349-1.723.546-.122.197-.92.358-1.774.358s-1.664.18-1.8.4-1.115.4-2.175.4c-1.225 0-2.108.219-2.425.6-.284.342-1.156.6-2.025.6-.84 0-1.639.18-1.775.4s-1.509.4-3.052.4c-1.917 0-2.989.184-3.385.58-.424.424-1.115.517-2.569.345-1.36-.161-2.697-.013-4.226.467-1.654.521-2.851.634-4.605.436-1.825-.207-2.574-.126-3.255.352-1.285.899-26.54.932-27.732.036-.598-.45-1.51-.53-3.976-.351-2.46.18-3.558.084-4.749-.416-.876-.367-2.647-.649-4.076-.649-1.39 0-2.639-.18-2.775-.4s-1.576-.4-3.2-.4-3.05-.157-3.169-.35c-.119-.192-1.245-.435-2.503-.539-1.258-.105-2.357-.397-2.441-.651-.085-.254-.943-.46-1.92-.46-.972 0-1.767-.18-1.767-.4s-.799-.4-1.776-.4-1.888-.18-2.024-.4-1.002-.406-1.924-.413-2.025-.277-2.452-.6c-.428-.323-1.283-.587-1.9-.587-.618 0-1.124-.18-1.124-.4s-.709-.4-1.576-.4-1.688-.18-1.824-.4c-1.018-1.648-3.8.278-3.8 2.631 0 .479-.27 1.095-.6 1.369-.342.284-.6 1.156-.6 2.025 0 .84-.18 1.639-.4 1.775s-.4.766-.4 1.4-.161 1.252-.358 1.374c-.197.121-.452.897-.567 1.723-.378 2.709-.971 4.959-1.427 5.415-.246.246-.448 1.121-.448 1.944s-.18 1.608-.4 1.744-.4.832-.4 1.547-.264 1.649-.587 2.077c-.323.427-.593 1.44-.6 2.252s-.193 1.588-.413 1.724-.4 1.047-.4 2.024-.18 1.776-.4 1.776-.4.791-.4 1.757c0 1.253-.186 1.829-.65 2.007-.508.195-.597.584-.406 1.775.166 1.037.058 1.771-.337 2.293-.32.422-.587 1.522-.594 2.444s-.193 1.788-.413 1.924-.4 1.115-.4 2.175c0 1.202-.22 2.109-.584 2.412-.385.319-.576 1.207-.56 2.599.014 1.163-.173 2.485-.415 2.938-.243.453-.441 1.635-.441 2.626 0 .992-.18 1.914-.4 2.05s-.4 1.387-.4 2.781c0 1.883-.154 2.593-.6 2.764-.448.171-.6.887-.6 2.819 0 1.424-.18 2.7-.4 2.836-.221.136-.4 1.93-.4 4s-.179 3.864-.4 4c-.22.136-.4 1.846-.4 3.8s-.18 3.664-.4 3.8-.4 1.822-.4 3.747c0 2.458-.175 3.731-.587 4.277-.48.634-.59 2.65-.6 11.052-.008 6.406-.164 10.37-.413 10.524-.544.336-.544 22.064 0 22.4.248.153.405 3.918.413 9.924.01 7.874.122 9.821.6 10.452.406.537.587 1.795.587 4.077 0 1.815.18 3.411.4 3.547s.4 1.666.4 3.4.18 3.264.4 3.4.4 1.666.4 3.4.18 3.264.4 3.4.4 1.115.4 2.175c0 1.225.219 2.108.6 2.425.404.336.6 1.238.6 2.769 0 1.249.162 2.442.359 2.651s.46 1.1.584 1.98c.739 5.246.946 6.249 1.378 6.681.264.264.479 1.152.479 1.975s.18 1.608.4 1.744.4.942.4 1.79c0 .849.21 1.613.467 1.699.256.085.463.775.459 1.533-.005.758.235 1.733.533 2.167s.541 1.188.541 1.676.18.999.4 1.135.4.946.4 1.8.18 1.664.4 1.8.4.652.4 1.147.264 1.249.587 1.677c.323.427.593 1.26.6 1.852s.193 1.188.413 1.324.4.699.4 1.252.27 1.275.6 1.605.6 1.027.6 1.548.18 1.059.4 1.195.4.676.4 1.2.18 1.064.4 1.2.4.766.4 1.4.18 1.264.4 1.4.4.757.4 1.381c0 .638.262 1.234.6 1.364.33.126.6.585.6 1.019s.18.9.4 1.036.4.676.4 1.2.18 1.064.4 1.2.4.766.4 1.4.175 1.261.389 1.393c.214.133.683.908 1.042 1.724s.997 2.203 1.418 3.083.835 1.969.92 2.419c.085.451.531 1.491.992 2.312.462.822.839 1.758.839 2.081s.16.588.357.588c.196 0 .469.45.607 1s.428 1 .644 1c.215 0 .392.228.392.506 0 .478 2.013 4.999 2.803 6.294.714 1.172 4.397 8.611 4.397 8.883 0 .152.45.761 1 1.355.55.593 1 1.323 1 1.62 0 .298.135.542.301.542.165 0 .81 1.08 1.434 2.4.623 1.32 1.298 2.4 1.499 2.4s.366.338.366.751.27.975.6 1.249.6.746.6 1.049.15.551.332.551c.183 0 .588.495.899 1.1.312.605 1.152 1.931 1.868 2.948.715 1.016 1.301 2.106 1.301 2.421 0 .316.63 1.185 1.4 1.931s1.4 1.521 1.4 1.721.45.898 1 1.552 1 1.445 1 1.758.159.569.354.569.656.635 1.025 1.412c.368.776 1.019 1.63 1.445 1.896.427.266.776.734.776 1.04 0 .305.63 1.252 1.4 2.105.77.852 1.4 1.738 1.4 1.969 0 .23.611.995 1.357 1.698.747.704 1.803 2 2.348 2.88s1.375 1.943 1.843 2.362c.469.419.852.931.852 1.139 0 .207 1.08 1.555 2.4 2.996 1.32 1.44 2.4 2.769 2.4 2.953 0 .183.774 1.047 1.72 1.919.947.873 1.978 2.091 2.293 2.709.314.617 3.348 3.939 6.741 7.382s6.343 6.593 6.555 7c.568 1.088 10.804 11.34 11.322 11.34.244 0 2.335 1.89 4.648 4.2s4.402 4.2 4.642 4.2c.241 0 1.932 1.437 3.758 3.193 1.827 1.757 3.501 3.205 3.721 3.219.22.013 1.21.825 2.2 1.803s1.994 1.78 2.23 1.782c.237.002.867.472 1.4 1.045.534.574 1.78 1.596 2.77 2.273.99.676 2.518 1.917 3.396 2.757s1.808 1.528 2.067 1.528c.26 0 1.066.63 1.793 1.4.726.77 1.536 1.4 1.8 1.4.263 0 1.073.63 1.8 1.4.726.77 1.639 1.4 2.029 1.4.389 0 .933.36 1.208.8s.726.8 1.002.8c.277 0 1.2.63 2.052 1.4.853.77 1.728 1.4 1.945 1.4.218 0 1.006.628 1.752 1.396.746.767 1.55 1.397 1.786 1.4.237.002.853.454 1.37 1.004s1.24 1 1.608 1c.367 0 .994.36 1.392.8s.935.8 1.192.8c.258 0 .891.45 1.408 1s1.237 1 1.6 1 1.083.45 1.6 1 1.178 1 1.47 1c.291 0 .53.159.53.354s.594.637 1.321.982 1.655.995 2.062 1.445c.408.451.991.819 1.296.819s.772.183 1.038.406c.91.764 3.518 2.394 3.831 2.394.172 0 .735.45 1.252 1s1.202 1 1.522 1 1.414.587 2.43 1.305c1.017.717 2.703 1.736 3.748 2.263s1.9 1.09 1.9 1.252c0 .751 1.237.628 2.531-.251.785-.533 1.635-.969 1.89-.969s.998-.45 1.652-1 1.445-1 1.758-1 .569-.18.569-.4.347-.4.771-.4 1.125-.45 1.558-1c.432-.55 1.047-1 1.367-1 .319 0 .906-.36 1.304-.8s.99-.8 1.316-.8 1.009-.45 1.519-1 1.118-1 1.351-1c.56 0 1.94-.784 3.343-1.9.623-.495 1.318-.9 1.544-.9.227 0 .766-.45 1.198-1 .433-.55 1.134-1 1.558-1s.771-.159.771-.354.594-.637 1.321-.982 1.655-.995 2.062-1.445c.408-.451 1.073-.819 1.479-.819s.738-.159.738-.354.585-.633 1.3-.973c.715-.339 1.829-1.17 2.475-1.845s1.38-1.228 1.63-1.228c.251 0 .878-.45 1.395-1s1.175-1 1.462-1c.288 0 1.172-.63 1.965-1.4s1.618-1.4 1.834-1.4 1.055-.628 1.866-1.397c.81-.768 1.663-1.398 1.895-1.4.231-.001 1.032-.633 1.778-1.403s1.525-1.4 1.73-1.4 1.07-.63 1.923-1.4c.852-.77 1.734-1.4 1.96-1.4s.931-.591 1.565-1.314c.635-.723 1.665-1.572 2.288-1.886.624-.314 2.243-1.613 3.599-2.886s2.621-2.314 2.81-2.314 1.33-.986 2.534-2.191c1.205-1.205 2.399-2.195 2.654-2.2s2.23-1.719 4.389-3.809 4.115-3.8 4.346-3.8c.525 0 24.202-23.688 24.203-24.215.001-.212 1.441-1.894 3.2-3.739 1.76-1.845 3.199-3.495 3.199-3.666s.916-1.272 2.035-2.446 2.291-2.623 2.604-3.222c.313-.598 1.467-1.927 2.565-2.954s1.996-2.138 1.996-2.468.63-1.138 1.4-1.796 1.4-1.533 1.4-1.945.135-.749.3-.75c.165 0 .787-.771 1.382-1.713s1.54-2.143 2.1-2.669 1.018-1.161 1.018-1.412c0-.25.54-.973 1.2-1.605s1.2-1.451 1.2-1.819.45-1.007 1-1.42 1-.986 1-1.273c0-.288.45-1.008 1-1.601.55-.594 1-1.278 1-1.521s.36-.768.8-1.166.8-.975.8-1.281c0-.307.45-.974 1-1.484s1-1.114 1-1.343c0-.637 1.706-3.692 2.062-3.692.173 0 .76-.973 1.304-2.162.544-1.19 1.179-2.28 1.411-2.424.233-.144.423-.602.423-1.018s.225-.9.5-1.076.932-1.13 1.459-2.12c.528-.99 1.168-2.07 1.421-2.4.414-.539 1.756-3.236 2.388-4.8.133-.33.786-1.5 1.45-2.6s1.307-2.27 1.428-2.6.565-1.292.987-2.138.767-1.771.767-2.057.281-.627.625-.759.523-.407.397-.611.042-.642.374-.974.604-.791.604-1.02.36-1.058.8-1.841.8-1.626.8-1.872c0-.399 1.457-3.764 2.435-5.623.201-.382.365-.952.365-1.267 0-.672 1.263-3.177 1.7-3.371.165-.074.3-.558.3-1.077 0-.518.18-1.054.4-1.19s.4-.692.4-1.236.27-1.093.6-1.219c.33-.127.6-.656.6-1.176 0-.519.36-1.586.8-2.369s.8-1.858.8-2.389c0-.53.18-1.075.4-1.211s.4-.782.4-1.436c0-.688.253-1.286.6-1.419.37-.142.6-.75.6-1.588 0-.746.18-1.357.4-1.357s.4-.518.4-1.151.283-1.386.628-1.672c.356-.296.538-.862.421-1.31-.113-.434.054-1.293.372-1.908.319-.616.579-1.578.579-2.139s.161-1.02.358-1.02.46-.675.585-1.5c.551-3.649.775-4.5 1.299-4.935.307-.255.558-1.15.558-1.99s.18-1.639.4-1.775.4-.946.4-1.8.18-1.664.4-1.8.406-1.002.414-1.924.272-2.126.586-2.676.578-1.574.586-2.276.194-1.388.414-1.524.4-1.387.4-2.781c0-1.883.154-2.593.6-2.764.432-.165.6-.842.6-2.419 0-1.204.18-2.3.4-2.436s.4-1.306.4-2.6.18-2.464.4-2.6.4-1.576.4-3.2.152-3.047.338-3.162.449-2.404.584-5.087.432-5.065.661-5.294c.24-.24.417-2.33.417-4.913 0-2.567.172-4.603.4-4.744.259-.16.4-8.263.4-23s-.141-22.84-.4-23c-.23-.142-.4-2.244-.4-4.944 0-2.591-.179-4.875-.399-5.095s-.518-2.866-.662-5.88c-.145-3.015-.415-5.481-.601-5.481s-.338-1.429-.338-3.176-.18-3.288-.4-3.424-.4-1.486-.4-3-.18-2.864-.4-3-.4-1.385-.4-2.775c0-1.758-.183-2.679-.6-3.025-.433-.36-.6-1.311-.6-3.425 0-1.61-.18-3.039-.4-3.175s-.4-1.058-.4-2.05c0-.991-.215-2.196-.477-2.676-.568-1.041-1.113-3.931-1.39-7.374-.111-1.375-.366-2.5-.567-2.5s-.366-.726-.366-1.614-.29-2.057-.644-2.597c-.387-.59-.548-1.366-.404-1.94.152-.607.022-1.138-.356-1.452-.377-.313-.596-1.203-.596-2.422 0-1.06-.18-2.039-.4-2.175s-.4-.873-.4-1.638c0-.764-.285-1.825-.633-2.356-.369-.564-.525-1.307-.375-1.782.152-.479.001-1.185-.366-1.709-.344-.491-.626-1.483-.626-2.204s-.18-1.311-.4-1.311-.4-.788-.4-1.751c0-1.069-.234-1.945-.6-2.249-.342-.284-.6-1.156-.6-2.025 0-.84-.18-1.639-.4-1.775s-.4-.777-.4-1.424-.18-1.176-.4-1.176-.4-.81-.4-1.8-.18-1.8-.4-1.8-.4-.611-.4-1.357c0-.838-.23-1.446-.6-1.588-.338-.129-.6-.725-.6-1.362 0-.623-.216-1.349-.48-1.613-.579-.579-3.12-.644-3.12-.08 0 .22-.81.4-1.8.4s-1.8.18-1.8.4-.495.406-1.1.413-1.449.277-1.876.6c-.428.323-1.452.587-2.277.587s-1.611.18-1.747.4-.856.4-1.6.4-1.464.18-1.6.4-1.149.4-2.252.4c-1.272 0-2.23.225-2.621.616-.404.404-1.224.585-2.377.525-.968-.05-1.974.123-2.235.384-.28.28-1.674.475-3.395.475-1.68 0-2.92.17-2.92.4 0 .233-1.322.4-3.167.4-2.177 0-3.219.156-3.334.5-.116.347-1.259.509-3.733.53-1.961.017-4.286.254-5.166.527-2.225.691-27.534.471-28.25-.246-.341-.342-1.341-.417-3.319-.251-2.135.179-3.212.078-4.38-.411-.875-.367-2.648-.649-4.076-.649-1.39 0-2.639-.18-2.775-.4s-1.371-.4-2.744-.4c-1.393 0-2.706-.21-2.971-.475-.261-.261-1.26-.434-2.218-.385-1.17.061-1.912-.112-2.254-.525-.297-.357-1.152-.615-2.038-.615-.84 0-1.639-.18-1.775-.4s-.946-.4-1.8-.4-1.664-.18-1.8-.4-.944-.4-1.795-.4-1.818-.27-2.148-.6-1.052-.6-1.605-.6-1.116-.18-1.252-.4-.946-.4-1.8-.4-1.664-.18-1.8-.4-.676-.4-1.2-.4-1.064-.18-1.2-.4-.614-.4-1.062-.4-1.382-.296-2.076-.657c-2.391-1.245-2.654-1.343-3.614-1.343-.529 0-1.066-.27-1.193-.6-.126-.33-.604-.6-1.062-.6-.457 0-1.577-.36-2.487-.8-.911-.44-2.072-.8-2.581-.8s-.925-.18-.925-.4-.349-.4-.776-.4-.881-.169-1.008-.375c-.302-.488-2.588-1.625-3.269-1.625-.507 0-4.933-1.986-5.347-2.4-.418-.418-4.635-2.4-5.106-2.4-.272 0-.494-.165-.494-.366s-1.08-.876-2.4-1.499c-1.32-.624-2.4-1.269-2.4-1.434 0-.487-3.519-.344-3.683.149m-15.128 55.182c6.377 1.469 12.175 6.794 13.661 12.546 1.746 6.759 1.735 6.654 1.688 16.222-.029 5.925-.291 11.47-.707 15-2.88 24.376-1.387 32.419 8.238 44.4 10.466 13.028 19.479 15.163 21.952 5.2.603-2.431 3.927-11.267 5.041-13.4 2.45-4.693 4.346-7.351 7.468-10.471 3.807-3.804 6.806-6.072 10.915-8.255 2.897-1.538 9.021-4.075 9.829-4.072 1.007.005 5.081 9.9 4.478 10.876-.115.186-1.141.805-2.28 1.377-6.488 3.255-7.123 5.811-1.234 4.96 5.126-.741 5.274-.701 5.572 1.485.142 1.045.527 3.282.855 4.972.663 3.415 1.356 12.002 1.464 18.128l.071 4-3 .3c-5.944.595-9.307 1.091-9.75 1.436-.247.193-1.013.458-1.702.588-13.048 2.467-29.81 19.785-35.113 36.276-.601 1.87-1.255 3.76-1.454 4.2-2.066 4.584-2.039 15.343.048 18.923 1.017 1.746 1.031 1.683-.929 4.47-1.978 2.813-3.955 6.017-4.941 8.007-.381.77-.965 1.719-1.297 2.109-1.962 2.308 8.105 2.806 13.089.649.963-.417 1.93-.758 2.149-.758.22 0 1.477-.72 2.795-1.6 3.67-2.45 4.415-2.193 2.042.703-3.782 4.615-8.098 7.275-13.455 8.291-10.333 1.96-11.891 3.232-11.873 9.69.014 5.181 1.621 7.547 6.391 9.416 9.618 3.767 15.265 7.889 21.608 15.775 2.323 2.887 2.734 4.508.663 2.614-9.264-8.475-36.663-8.003-55.336.953-2.015.967-3.838 1.758-4.051 1.758-.212 0-.586.24-.829.534-.244.294-1.236.942-2.204 1.44-.969.498-3.056 1.892-4.639 3.098-2.588 1.972-2.945 2.133-3.545 1.602-.367-.325-1.027-.662-1.467-.748-1.5-.293.034-7.226 2.549-11.526.193-.33.764-1.41 1.268-2.4.505-.99 1.292-2.272 1.75-2.85.458-.577 1.193-1.556 1.633-2.175s1.295-1.571 1.9-2.116c.787-.709 1.1-1.375 1.1-2.341 0-3.021 2.465-5.819 5.6-6.355 10.799-1.85 16.723-6.006 21.341-14.974 2.8-5.439 3.545-7.595 5.524-15.989 1.626-6.895.412-18.107-2.576-23.8-2.172-4.138-9.767-12.583-13.365-14.862-.618-.391-1.503-1.078-1.966-1.525-.462-.447-2.262-1.801-4-3.01-23.495-16.339-31.089-27.767-31.102-46.803-.006-9.257 1.839-15.705 6.446-22.52.714-1.056 1.298-2.009 1.298-2.117 0-.223.01-.236 2.89-3.707 9.793-11.804 13.234-18.736 13.234-26.656-.001-10.856-6.225-18.757-16.224-20.594-1.485-.273-2.7-.625-2.7-.782 0-1.421 7.94-5.157 12.2-5.74 2.525-.345 11.281-.246 12.989.148m-7.661 3.773c-1.347 1.347 2.397 4.455 4.441 3.686 3.495-1.315 6.091 7.391 3.19 10.695-.683.778-1.477 1.414-1.764 1.414-.407 0-.558 1.748-.683 7.9l-.161 7.9-1.509 3.8c-3.608 9.081-3.685 13.332-.321 17.722 2.338 3.051 8.569 6.258 12.932 6.655.14.013.36-1.732.491-3.877.245-4.044 1.136-13.392 1.84-19.3.587-4.931.619-19.377.048-21.8-.259-1.1-.62-2.63-.803-3.4-1.313-5.541-5.029-9.38-10.498-10.846-2.074-.556-6.833-.919-7.203-.549m-7.79 210.695c-.807 1.155-1.862 2.64-2.345 3.3s-1.238 1.92-1.679 2.8-1.178 2.328-1.637 3.218c-.46.89-1.019 2.33-1.242 3.2-1.136 4.43-1.606 5.635-2.707 6.95-.66.787-1.452 1.837-1.76 2.332-1.386 2.226-4.011-.092-3.167-2.796.669-2.143 3.475-7.683 4.591-9.062.463-.573 1.127-1.492 1.474-2.042 1.385-2.191 8.991-10 9.741-10 .109 0-.462.945-1.269 2.1m52.662 6.76c13.015 1.854 20.127 7.21 22.76 17.14.262.99.666 2.52.896 3.4.71 2.71.515 15.594-.279 18.4-.373 1.32-.791 2.94-.928 3.6-.388 1.868-.965 2.563-2.361 2.842l-1.288.258v-2.518c0-6.024-3.062-8.771-11.829-10.61-11.161-2.341-16.665-.831-19.215 5.272-.299.716-.721 1.411-.937 1.544-.36.222-11.379-3.288-15.619-4.975-.99-.394-3.06-1.213-4.6-1.82-2.966-1.17-5.021-2.043-8.6-3.657-7.178-3.235-5.974-2.659-10.8-5.171-1.25-.651-1.289-7.703-.05-8.972 2.228-2.281 11.237-7.527 17.85-10.394 5.602-2.429 13.913-4.25 22.6-4.953 2.531-.205 8.847.108 12.4.614m-56.755 14.352c1.555 1.787 1.216 7.377-.639 10.542-3.729 6.363-8.591 1.462-6.207-6.256 1.473-4.77 4.68-6.778 6.846-4.286m-10.367 3.863c1.825 1.748 1.652 5.876-.41 9.806-.842 1.605-1.64 3.342-1.773 3.859-.928 3.619-1.389-1.906-.678-8.14.752-6.596 1.081-7.231 2.861-5.525m15.4 9.085c6.667 3.331 14.87 6.917 20.722 9.06 1.32.483 3.48 1.298 4.8 1.811s3.93 1.407 5.8 1.987c1.87.579 4.014 1.264 4.764 1.521l1.365.467.052 3.257c.063 3.986 1.084 6.259 3.896 8.682 4.001 3.446 17.282 5.294 21.624 3.009 2.2-1.158 5.499-4.821 5.499-6.106 0-.331.18-.712.4-.848s.4-.597.4-1.024c0-.616.28-.776 1.363-.776 1.455 0 1.648.995.394 2.036-.306.254-.557.722-.557 1.04 0 .317-.45 1.167-1 1.888-.55.722-1 1.443-1 1.604 0 .451-3.317 4.577-5.68 7.064-5.177 5.452-11.814 9.681-18.72 11.929-2.09.68-4.353 1.418-5.028 1.638-1.951.637-6.216.468-9.421-.373-1.623-.426-3.401-.886-3.951-1.022-2.535-.628-5.455-1.612-6-2.02-.33-.248-1.679-1.047-2.998-1.776-4.955-2.739-15.402-13.32-15.402-15.599 0-.254-.429-1.035-.954-1.736-1.189-1.586-2.646-4.454-2.646-5.208 0-.312-.24-.767-.534-1.01-.294-.244-.765-1.211-1.047-2.149s-.852-2.549-1.266-3.58-.753-2.415-.753-3.077c0-.661-.157-1.299-.35-1.418-.192-.119-.57-1.634-.84-3.367l-.49-3.15 1.94-2.016c2.348-2.44 2.24-2.426 5.618-.738m-10.627 2.64c.274 0 .533 1.114 1.164 5 .214 1.32.674 3.3 1.023 4.4.348 1.1.818 2.63 1.043 3.4.414 1.411 1.115 3.19 2.128 5.4.303.66.829 1.83 1.171 2.6 4.299 9.704 14.31 19.701 23.82 23.786.99.425 2.16 1.027 2.6 1.337 1.552 1.094-4.276-.047-7.6-1.488-.44-.191-1.947-.672-3.35-1.069-1.402-.398-2.752-.915-3-1.15-.247-.235-1.615-1.041-3.038-1.792-11.606-6.12-22.412-21.277-22.412-31.435 0-1.776.151-3.4.336-3.609s.572-1.01.861-1.78c.288-.77 1.049-2.342 1.689-3.493l1.164-2.093 1.071.993c.589.546 1.187.993 1.33.993m65.749 4.565c1.32.368 3.709.918 5.308 1.221 4.887.925 7.601 3.648 7.665 7.69.034 2.098-.246 2.264-3.245 1.916l-2.429-.282.203-1.855c.436-3.992-1.717-4.195-2.702-.255-.289 1.155-.632 1.633-1.235 1.719-1.355.194-1.921-.835-1.372-2.497.617-1.871.225-3.022-1.03-3.022-1.058 0-1.763 1.214-1.763 3.039 0 1.172-.692 1.524-2.026 1.029-.881-.327-.974-.587-.974-2.715 0-2.117-.088-2.366-.877-2.478-.937-.133-2.123 1.565-2.123 3.038 0 1.08-.326 1.267-1.534.881-.586-.187-2.101-.627-3.366-.978-2.731-.758-2.738-.79-.731-3.329 3.081-3.898 6.41-4.748 12.231-3.122m-10.4 9.675c.88.301 1.927.551 2.327.554.576.005.664.192.424.906-.688 2.042-.436 2.9.849 2.9 1.016 0 1.26-.205 1.593-1.337.366-1.245.487-1.322 1.75-1.117 1.805.293 1.896.438 1.301 2.083-.578 1.6-.12 2.571 1.214 2.571.769 0 1.289-.88 1.729-2.929.222-1.032.352-1.105 1.528-.853 1.677.359 1.675.357 1.093 1.762-.274.663-.394 1.479-.266 1.813.53 1.382 2.788.231 3.122-1.593.097-.529.45-.79 1.041-.771.492.015 1.715.06 2.718.1l1.823.071-1.123 2.028c-2.377 4.294-6.055 5.877-11.523 4.961-10.089-1.69-11.503-2.376-13.544-6.566-2.357-4.836-1.089-6.31 3.944-4.583" fill="#fff"/></g></svg>